 <!DOCTYPE svg PUBLIC "-//W3C//DTD SVG 1.1//EN" "http://www.w3.org/Graphics/SVG/1.1/DTD/svg11.dtd">
<svg id="b90120ca-d8ee-4cab-ac51-9e5380140bd5" data-name="Layer 1" xmlns="http://www.w3.org/2000/svg" width="865.76" height="682.89" viewBox="0 0 865.76 682.89">
<defs>
<style xmlns="http://www.w3.org/1999/xhtml">*, ::after, ::before { box-sizing: border-box; }
img, svg { vertical-align: middle; }
</style>
<style xmlns="http://www.w3.org/1999/xhtml">*, body, html { -webkit-font-smoothing: antialiased; }
img, svg { max-width: 100%; }
</style>
</defs>
<polygon points="155.31 160.6 155.31 183.32 134.76 171.96 139.88 162.1 140.31 148.53 152.31 149.68 155.31 160.6" fill="#f9b499"/>
<polygon points="231.45 525.11 248.31 587.39 265.17 587.39 265.17 521.68 231.45 525.11" fill="#f9b499"/>
<polygon points="272.02 526.55 302.88 520.26 306.31 589.41 289.17 589.41 272.02 526.55" fill="#f9b499"/>
<path d="M46.88,424.53H189.24a0,0,0,0,1,0,0v12.39a6.47,6.47,0,0,1-6.47,6.47H46.88A9.43,9.43,0,0,1,37.45,434v0A9.43,9.43,0,0,1,46.88,424.53Z" fill="#bcbec0"/>
<path d="M675.45,424.53H816.31a9.43,9.43,0,0,1,9.43,9.43v1.71a9.43,9.43,0,0,1-9.43,9.43H685.74a10.29,10.29,0,0,1-10.29-10.29V424.53A0,0,0,0,1,675.45,424.53Z" fill="#bcbec0"/>
<polygon points="700.88 156.53 704.02 185.1 732.02 175.96 724.23 149.87 700.88 156.53" fill="#f9b499"/>
<path d="M140.31,148.53s16.57,22,30.86,18.86,4.57-36,4.57-36a19.31,19.31,0,0,0-6.72,0l-7.92-14.07.85,15.21s-13.71,3.22-17.35,11.36c0,0-1.67-6.81-5.57-7.89a3.4,3.4,0,0,0-4.15,2.76C134.46,141.05,135,144.71,140.31,148.53Z" fill="#f9b499"/>
<path d="M103.45,250.18c-19.93,7.28-30-14.79-30-14.79-12.64-25.28,6.43-35.14,6.43-35.14A8.48,8.48,0,0,0,82,191.68c-3.13-16.72,9.45-23.27,14.27-25.14a10.63,10.63,0,0,1,2.91-.61,4.87,4.87,0,0,0,3-1.33,5.38,5.38,0,0,0,1.59-4.24c-.83-14.64,15.55-16.25,15.55-16.25s-8.43-12.88-2.45-28.24a32.75,32.75,0,0,1,28-20.38c10.1-.82,23.21.61,31,11.24a24.73,24.73,0,0,1,3.84,9.81c.5,4,.79,10-.78,14.92a90.49,90.49,0,0,0-9.95-.07l-7.92-14.07.85,15.21s-12.85,2.15-17.35,11.36c0,0-3.12-11.64-8.74-7,0,0-4.27,5.62,5.23,12.63l-1.21,12.59-15.64-9.65s1.28,18.86,4.28,22.07l-5.78,6,1.89,1.93s-14.32,21.86-17.11,31.72S103.45,250.18,103.45,250.18Z" fill="#2f2e41" data-secondary="true"/>
<rect x="49.74" y="494.25" width="118.86" height="7.43" fill="#d1d3d4"/>
<rect x="694.06" y="494.25" width="118.86" height="7.43" fill="#d1d3d4"/>
<path d="M172.6,462.25h10.85V443.39H63.34l3.83-22.34a72.3,72.3,0,0,0,.27-22.79L48.6,270.82H33.17L46,390.6a175.66,175.66,0,0,1-.08,38.15l-19,170.64H36.6L60.11,462.25h94.2L176,593.11h10.86Z" fill="#d1d3d4"/>
<polygon points="689.17 462.82 677.74 591.96 689.17 591.96 709.74 462.82 803.45 462.82 828.02 599.39 838.88 599.39 816.6 414.25 829.74 270.82 816.02 270.82 794.31 406.25 799.45 444.53 680.6 444.53 680.6 463.25 689.17 462.82" fill="#d1d3d4"/>
<path d="M112,348.53s-31.11,85.72,33,80l44.7.28-3.43,100.87s80.57,9.14,120-10.86L300,443.39s2.29-42.86-33.14-55.43l-86.74-53.71Z" fill="#2f2e41" data-secondary="true"/>
<path d="M686.68,118.8s-3.8,0-2.94-4.55c0,0-6.44-2-3.5-7.43,0,0-6.69-3.43,2.83-8,0,0-4.76-6.29,10.67-9.14,0,0,3.43-21.15,15.14-6.29,0,0,6.29-8,16,3.43l4.56,6.29s12.29-2,13.43,15.57c0,0,8.86,5.85,2,19.85,0,0-3.71,7.43-9.71,11.15,0,0-8.57,5.14-10.28,11.14Z" fill="#2f2e41" data-secondary="true"/>
<path d="M686.08,120.38c-4.48,12.78-15.44,50.05,13.12,40.21l25.69-9.77-7.95-11.6s10.64-5.83,7.29-11.83c0,0-2.49-4.28-6.78,2,0,0-4.57,7.14-8,2.86,0,0-2-.86,2.29-5.14l-2.21-2.22a6,6,0,0,1-1.24-6.71l2-4.5s1.14-4.57-4.57-1.43c0,0-3.32,1.6-4.86-.9a5.65,5.65,0,0,0-8.37-1.4l-.2.17C689.5,112.47,687.29,116.92,686.08,120.38Z" fill="#f9b499"/>
<path d="M281.4,604.32l14.18.07,1.34-9,4.71,8.8,25.22-1a5.67,5.67,0,0,0,2.81-10.46l-22.5-12.79-.37-9.07-24,1.34Z" fill="#61b198" data-primary="true"/>
<path d="M242.88,604.32l14.18.07,1.34-9,4.71,8.8,25.22-1a5.67,5.67,0,0,0,2.81-10.46l-22.5-12.79-.37-9.07-24,1.34Z" fill="#61b198" data-primary="true"/>
<path d="M591.18,265.74S578.62,261,582.83,254s9.49-9,13.67-7.46S612.72,259,612.72,259l12.31,5-6,11.26s-14.51-3.8-16.35-4.41Z" fill="#f9b499"/>
<path d="M605.53,320.3s-12.9,3.68-13.71-4.51,2.25-12.9,6.55-14.13,20.47.41,20.47.41l12.9-3.27,1.84,12.64s-13.92,5.58-15.76,6.19Z" fill="#f9b499"/>
<polyline points="687.62 294.25 618.31 279.54 621.74 258.25 687.62 267.96" fill="#61b198" data-primary="true"/>
<line x1="591.15" y1="284.03" x2="591.15" y2="243.3" fill="none" stroke="#2f2e41" stroke-miterlimit="10"/>
<line x1="577.74" y1="284.03" x2="603.5" y2="284.03" fill="none" stroke="#2f2e41" stroke-miterlimit="10"/>
<polygon points="553.74 564.53 553.74 581.11 570.88 581.11 570.88 558.82 553.74 564.53" fill="#f9b499"/>
<polygon points="591.02 568.39 591.02 584.96 608.17 584.96 608.17 562.68 591.02 568.39" fill="#f9b499"/>
<path d="M574.61,609.55l-14.19.06-1.33-9.05-4.71,8.81-25.23-1a5.68,5.68,0,0,1-2.8-10.47l22.5-12.78.37-9.08,24,1.35Z" fill="#61b198" data-primary="true"/>
<path d="M612.63,611.26l-14.18.06-1.34-9-4.71,8.8-25.22-1a5.68,5.68,0,0,1-2.81-10.47l22.5-12.78.37-9.08,24,1.35Z" fill="#61b198" data-primary="true"/>
<polygon points="612.63 572.04 587.26 572.04 578.6 434.91 612.63 432.13 612.63 572.04" fill="#2f2e41" data-secondary="true"/>
<path d="M551.7,572l6.41-145.27s0-25.09,30.34-31.51l91.6-29.17s53.09,22.76,90.43,15.17c0,0,2.4,51.27-58.88,47.85l-106.72,6.42L572.41,572Z" fill="#2f2e41" data-secondary="true"/>
<rect x="245.67" y="338.84" width="376.07" height="33.13" fill="#bcbec0"/>
<path d="M653.88,319h-442a8.42,8.42,0,0,0-8.43,8.43v6.09a8.42,8.42,0,0,0,8.43,8.42h19.77l16.65,272.4h11.57V342H610.45v272.4H622L638.68,342h15.2a6.71,6.71,0,0,0,6.72-6.71v-9.51A6.72,6.72,0,0,0,653.88,319Z" fill="#d1d3d4"/>
<path d="M702.88,181.68l30.86-9.15s30.65,44,36.75,104c0,0,7.48,77.81,0,104.73,0,0-48.06,18.4-95.83-13.45,0,0,1.4-64.5,5.2-109.35a183,183,0,0,1,15.09-58.92Z" fill="#61b198" data-primary="true"/>
<path d="M246,321.8s12.9,3.68,13.72-4.51-2.25-12.9-6.55-14.13-20.48.41-20.48.41l-12.89-3.27L218,312.94s13.92,5.58,15.77,6.19Z" fill="#f9b499"/>
<polygon points="182.36 311.38 222.31 316.82 225.74 299.96 209.74 292.82 176.03 292.82 178.6 310.25 182.36 311.38" fill="#61b198" data-primary="true"/>
<path d="M575.31,219.05h31.57a0,0,0,0,1,0,0v8.47A15.79,15.79,0,0,1,591.1,243.3h0a15.79,15.79,0,0,1-15.79-15.79v-8.47A0,0,0,0,1,575.31,219.05Z" fill="#d1d3d4"/>
<path d="M575.31,204.62h31.57a0,0,0,0,1,0,0v22.9A15.79,15.79,0,0,1,591.1,243.3h0a15.79,15.79,0,0,1-15.79-15.79v-22.9a0,0,0,0,1,0,0Z" fill="none" stroke="#2f2e41" stroke-miterlimit="10"/>
<line x1="401.79" y1="318.88" x2="401.79" y2="278.15" fill="none" stroke="#2f2e41" stroke-miterlimit="10"/>
<line x1="388.38" y1="318.88" x2="414.14" y2="318.88" fill="none" stroke="#2f2e41" stroke-miterlimit="10"/>
<path d="M386,253.9h31.57a0,0,0,0,1,0,0v8.47a15.79,15.79,0,0,1-15.79,15.79h0A15.79,15.79,0,0,1,386,262.37V253.9A0,0,0,0,1,386,253.9Z" fill="#d1d3d4"/>
<path d="M386,239.47h31.57a0,0,0,0,1,0,0v22.9a15.79,15.79,0,0,1-15.79,15.79h0A15.79,15.79,0,0,1,386,262.37v-22.9A0,0,0,0,1,386,239.47Z" fill="none" stroke="#2f2e41" stroke-miterlimit="10"/>
<path d="M382.11,287.71h0a17.2,17.2,0,0,1,2.93-9.55c1.32-2,2.07-4.67-.6-7.24,0,0-8.76-5.93-11.33,8.4,0,0-3,8.75-10.5,5.32,0,0-1.35-3.09,3.42-5.19a6.57,6.57,0,0,0,3.94-5.22c.24-2.24-.83-4.49-6.08-4.52,0,0-3.69,0-4.22,7.2a5,5,0,0,1-1.8,3.59c-1,.77-2.11,1.26-2.76.07,0,0,6-19.93-7.29-18.22,0,0-7.25,1.15-5.19,13.34a9,9,0,0,1-1.11,6.21c-1,1.73-2.61,3-4.67,1.22a9.6,9.6,0,0,0-5.46-2.41h-.09a11.51,11.51,0,0,1-9.37-6.94c-1.29-2.91-4-6.09-9.25-2.19,0,0-4.07,4.5,4.07,9.21l0,0a2.33,2.33,0,0,1-2,4.1,8.85,8.85,0,0,1-6-4.76s-3.43-12.25-10.07-10.19c0,0-8.57,6.48,1.28,12.12v5.64Z" fill="#d1d3d4"/>
<path d="M297.92,287.71h86.52s-1.12,31.27-13,31.27H309.25S297.81,317.2,297.92,287.71Z" fill="#e4e4e4"/>
<path d="M303.81,274.08a.47.47,0,0,1-.35-.15l-31.15-31.14a.51.51,0,0,1,0-.71.5.5,0,0,1,.71,0l31.14,31.15a.48.48,0,0,1,0,.7A.47.47,0,0,1,303.81,274.08Z" fill="#2f2e41" data-secondary="true"/>
<path d="M301.63,278.68a.51.51,0,0,1-.36-.15L296,273.2a5.29,5.29,0,0,1,7.39-7.57l5.07,4.83a.5.5,0,1,1-.69.72l-5.07-4.83a4.29,4.29,0,0,0-6,6.15l5.32,5.32a.5.5,0,0,1,0,.71A.49.49,0,0,1,301.63,278.68Z" fill="#2f2e41" data-secondary="true"/>
<path d="M286.08,267.34s12.56-4.72,8.35-11.79-9.49-9-13.67-7.45-16.21,12.51-16.21,12.51l-12.32,5,6,11.26s14.51-3.8,16.36-4.4Z" fill="#f9b499"/>
<path d="M155.31,180l9,13.43-2.57,3.14,14,28s8.53,18.58,4.4,33.72c0,0,8.46,9.43,11.6,13.14L256,260.53l3.86,18.58-59.64,20.13c-3.5,1.18-6.93,2.56-10.34,4-2.62,1.09-6.48,1.91-8.45-1.39,0,0,0,10.44,3.3,18.13a19.74,19.74,0,0,1,1.72,6.87c.23,5.08-1.07,12.7-10.2,15.5-2.1.65-4.15,1.45-6.19,2.28-12.28,5-48.1,17.92-64.06,7.36,0,0-4.57-2.57,2-30,0,0-8.85-28.28-4.85-52.57,0,0-.43-25.72,2.87-46.59,1-6.39,1.48-10.83,4.62-16.49L123,184.18l-.21-3.65,9.57-9.71,23,12.5Z" fill="#61b198" data-primary="true"/>
<path d="M746.77,226.61,734.29,283.8a23.65,23.65,0,0,1-19.14,18.26l-82,13.9L628,296.53l76.58-25.71,4.74-43.65a26.09,26.09,0,0,1,12.54-19.82c5.08-2.95,11.31-4.29,17.61.06A18.49,18.49,0,0,1,746.77,226.61Z" fill="#61b198" data-primary="true"/>
<path d="M746.77,226.61,734.29,283.8a23.65,23.65,0,0,1-19.14,18.26l-82,13.9L628,296.53l76.58-25.71,4.74-43.65a26.09,26.09,0,0,1,12.54-19.82c5.08-2.95,11.31-4.29,17.61.06A18.49,18.49,0,0,1,746.77,226.61Z" opacity="0.1"/>
<path d="M155.31,162.93v6.19s-12.76-8.45-14.22-19.6C141.09,149.52,149.65,159.8,155.31,162.93Z" fill="#f4a48e"/>
<polygon points="702.56 165.12 700.88 159.95 719.81 152.75 702.56 165.12" fill="#f4a48e"/>
</svg>