 <!DOCTYPE svg PUBLIC "-//W3C//DTD SVG 1.1//EN" "http://www.w3.org/Graphics/SVG/1.1/DTD/svg11.dtd">
<svg id="bc011f99-3cb7-46d1-a587-304f450e9793" data-name="Layer 1" xmlns="http://www.w3.org/2000/svg" width="865.76" height="682.89" viewBox="0 0 865.76 682.89">
<defs>
<style xmlns="http://www.w3.org/1999/xhtml">*, ::after, ::before { box-sizing: border-box; }
img, svg { vertical-align: middle; }
</style>
<style xmlns="http://www.w3.org/1999/xhtml">*, body, html { -webkit-font-smoothing: antialiased; }
img, svg { max-width: 100%; }
</style>
</defs>
<g id="ba932e21-bab2-4b43-ae74-11b230aa31d1" data-name="freepik--background-simple--inject-262">
<path d="M701.35,594.41s82.1-136.47,56.88-295.18-148-149.11-231.59-176.37S398.79,47.33,302.27,77.59s-132.43,86-140.66,172.56S161.93,419.6,177.36,498s41.8,136,113.41,144.1,95.49-15,136.62,8.93S628.48,705.45,701.35,594.41Z" fill="#61b198" data-primary="true"/>
<path d="M701.35,594.41s82.1-136.47,56.88-295.18-148-149.11-231.59-176.37S398.79,47.33,302.27,77.59s-132.43,86-140.66,172.56S161.93,419.6,177.36,498s41.8,136,113.41,144.1,95.49-15,136.62,8.93S628.48,705.45,701.35,594.41Z" fill="#fff" opacity="0.7" style="isolation:isolate"/>
</g>
<g id="e1d1b81b-8e12-4b89-80c7-42addff1fae6" data-name="freepik--thread-2--inject-262">
<path d="M836.86,412a.76.76,0,0,1-.36.2l-12,2.9a.86.86,0,0,1-.59-.08.83.83,0,0,1-.33-.47l-6.29-26a.76.76,0,0,1,.09-.59.75.75,0,0,1,.47-.34l12-2.9a.77.77,0,0,1,.93.56h0l6.27,26A.74.74,0,0,1,836.86,412Zm-12,1.44,10.48-2.52-5.9-24.44L819,389Z" fill="#2f2e41" data-secondary="true"/>
<path d="M737.45,436.13a.73.73,0,0,1-.37.19l-12,2.93a.74.74,0,0,1-.58-.09.77.77,0,0,1-.35-.48l-6.29-26a.76.76,0,0,1,.57-.92h0l12-2.92a.76.76,0,0,1,.92.58h0l6.21,26A.77.77,0,0,1,737.45,436.13Zm-12,1.44L736,435.05,730,410.52,719.53,413Z" fill="#2f2e41" data-secondary="true"/>
<path d="M827.51,425.69a.82.82,0,0,1-.37.19l-87.46,21.17a.78.78,0,0,1-.56-.09.77.77,0,0,1-.35-.48l-11.53-47.41a.76.76,0,0,1,.55-.93h0L815.25,377a.76.76,0,0,1,.93.55h0L827.67,425a.77.77,0,0,1-.1.57Zm-87.44,19.69,86-20.81-11.13-46L729,399.4Z" fill="#2f2e41" data-secondary="true"/>
<path d="M803.32,417.57a.78.78,0,0,1-1,.09l-32.8-24a.79.79,0,0,1-.16-1.07.77.77,0,0,1,1.07-.17h0l32.77,24a.74.74,0,0,1,.18,1l0,0Z" fill="#2f2e41" data-secondary="true"/>
<path d="M816.18,427a.76.76,0,0,1-1,.07l-7.89-5.73a.74.74,0,0,1-.19-1l0,0a.76.76,0,0,1,1.06-.17l7.91,5.74a.77.77,0,0,1,.18,1.06Z" fill="#2f2e41" data-secondary="true"/>
<path d="M772.2,405a.79.79,0,0,1-1,.08l-12.16-8.9a.75.75,0,0,1-.19-1l0,0a.76.76,0,0,1,1.06-.17l12.16,8.89a.77.77,0,0,1,.17,1.07h0Z" fill="#2f2e41" data-secondary="true"/>
<path d="M805.68,429.53a.76.76,0,0,1-1,.08l-28.55-20.88a.78.78,0,0,1-.16-1.07.77.77,0,0,1,1.07-.16h0l28.53,20.86a.76.76,0,0,1,.17,1.07h0Z" fill="#2f2e41" data-secondary="true"/>
<path d="M792.68,432.67a.75.75,0,0,1-1,.08l-45.64-33.4a.74.74,0,0,1-.18-1v0a.77.77,0,0,1,1.07-.16h0l45.65,33.38a.8.8,0,0,1,.16,1.08Z" fill="#2f2e41" data-secondary="true"/>
<path d="M753.49,415.21a.76.76,0,0,1-1,.08L734.6,402.1a.77.77,0,0,1,.92-1.24l17.89,13.07a.75.75,0,0,1,.18,1.05l0,0Z" fill="#2f2e41" data-secondary="true"/>
<path d="M781.19,435.46a.75.75,0,0,1-1,.07L757.61,419a.77.77,0,0,1,.92-1.24l22.6,16.53a.78.78,0,0,1,.16,1.07Z" fill="#2f2e41" data-secondary="true"/>
<path d="M790,399.48a.76.76,0,0,1-1.08.13.77.77,0,0,1-.13-1.08l9.09-14.89a.78.78,0,0,1,1.06-.26.76.76,0,0,1,.25,1.05l-9.09,14.89Z" fill="#2f2e41" data-secondary="true"/>
<path d="M798.28,403.29a.77.77,0,0,1-1.08.13.79.79,0,0,1-.13-1.09l9.09-14.89a.78.78,0,0,1,1.06-.26.76.76,0,0,1,.25,1.05l-9.05,14.87Z" fill="#2f2e41" data-secondary="true"/>
<path d="M806.6,407.1a.78.78,0,0,1-.94.1.75.75,0,0,1-.26-1v0l9.09-14.9a.76.76,0,0,1,1-.25.75.75,0,0,1,.27,1h0L806.71,407Z" fill="#2f2e41" data-secondary="true"/>
<path d="M737.57,432.26a.74.74,0,0,1-.93.11.77.77,0,0,1-.27-1.05h0l9.09-14.9a.79.79,0,1,1,1.33.84l-9.09,14.89Z" fill="#2f2e41" data-secondary="true"/>
<path d="M745.9,436.06a.77.77,0,0,1-.94.12.79.79,0,0,1-.26-1.06l9.1-14.9a.76.76,0,0,1,1.05-.25.78.78,0,0,1,.26,1.06L746,435.92Z" fill="#2f2e41" data-secondary="true"/>
<path d="M754.23,439.87a.76.76,0,0,1-.94.11.78.78,0,0,1-.26-1.06L762.12,424a.77.77,0,1,1,1.32.8l-9.09,14.89Z" fill="#2f2e41" data-secondary="true"/>
<path d="M763,495.94a30.79,30.79,0,0,1-19.77,9.44,26.51,26.51,0,0,1-15.17-4,30,30,0,0,1-11,10.71.77.77,0,1,1-.78-1.32,28.18,28.18,0,0,0,10.45-10.12,47.81,47.81,0,0,1-16.84-19.47c-4.31-9.3-4-17.48.81-22.47l.18-.18a7.07,7.07,0,0,1,7.76-1.89c6.54,2.32,12.51,13.08,13.55,24.49a33.63,33.63,0,0,1-3.36,18.79,24.94,24.94,0,0,0,14.29,3.86c21-1.5,33.72-26.2,33.82-49.23.05-10.07,2-16.57,5.89-19.31a6.7,6.7,0,0,1,5.84-1.08.76.76,0,0,1,.6.9.78.78,0,0,1-.91.6l-.17-.06a5.28,5.28,0,0,0-4.51.91c-2.34,1.69-5.14,6.18-5.2,18C778.37,470,772.82,486.07,763,495.94Zm-51-36.31-.08.09c-4.37,4.47-4.56,12-.54,20.73a46.49,46.49,0,0,0,16.23,18.71,32.73,32.73,0,0,0,3.09-17.8c-1-10.67-6.61-21.08-12.54-23.18A5.58,5.58,0,0,0,712,459.63Z" fill="#2f2e41" data-secondary="true"/>
</g>
<g id="b1aedd3f-a426-42e2-874d-17fd87b36ffb" data-name="freepik--thread-1--inject-262">
<path d="M168.59,386.08l-.11.11-9,5.19a.58.58,0,0,1-.76-.21l-11.24-19.62a.61.61,0,0,1-.05-.42.62.62,0,0,1,.3-.3l9-5.18a.58.58,0,0,1,.76.21l11.2,19.56a.61.61,0,0,1,.05.44A.54.54,0,0,1,168.59,386.08Zm-9.27,4,8.09-4.64-10.69-18.65-8.09,4.63Z" fill="#2f2e41" data-secondary="true"/>
<path d="M243.66,343.08l-.11.1-9.05,5.19a.59.59,0,0,1-.41.06.6.6,0,0,1-.34-.26L222.48,328.5a.52.52,0,0,1,0-.42.51.51,0,0,1,.29-.3l9.06-5.19a.55.55,0,0,1,.75.2l11.24,19.62A.58.58,0,0,1,243.66,343.08Zm-9.24,4,8.09-4.64L231.87,323.8l-8.09,4.64Z" fill="#2f2e41" data-secondary="true"/>
<path d="M239.25,356.37l-.1.11-66,37.83a.54.54,0,0,1-.43.05.45.45,0,0,1-.32-.25l-20.52-35.82a.55.55,0,0,1,.2-.75l66-37.84a.57.57,0,0,1,.76.22l20.51,35.81a.48.48,0,0,1,0,.42A.4.4,0,0,1,239.25,356.37ZM173,393.05l65.07-37.27-20-34.88-65.06,37.28Z" fill="#2f2e41" data-secondary="true"/>
<path d="M206.57,371a.59.59,0,0,1-.59.14l-32.29-11.77a.55.55,0,0,1-.25-.74.55.55,0,0,1,.62-.29l32.28,11.72a.54.54,0,0,1,.33.69v0A.39.39,0,0,1,206.57,371Z" fill="#2f2e41" data-secondary="true"/>
<path d="M169.34,357.46a.51.51,0,0,1-.57.13L161,354.77a.55.55,0,0,1-.41-.66.55.55,0,0,1,.66-.42.33.33,0,0,1,.12.05l7.77,2.8a.56.56,0,0,1,.34.7h0A.51.51,0,0,1,169.34,357.46Z" fill="#2f2e41" data-secondary="true"/>
<path d="M214.46,366.44a.53.53,0,0,1-.58.13l-12-4.35a.55.55,0,0,1-.25-.74.55.55,0,0,1,.62-.29l12,4.35a.55.55,0,0,1,.34.7h0A.64.64,0,0,1,214.46,366.44Z" fill="#2f2e41" data-secondary="true"/>
<path d="M197.61,360.32a.52.52,0,0,1-.57.13l-28.1-10.22a.54.54,0,0,1-.34-.69h0a.55.55,0,0,1,.7-.34h0l28.09,10.22a.56.56,0,0,1,.34.71h0A.53.53,0,0,1,197.61,360.32Z" fill="#2f2e41" data-secondary="true"/>
<path d="M224.27,360.83a.58.58,0,0,1-.59.13l-44.93-16.34a.55.55,0,0,1-.41-.67.55.55,0,0,1,.66-.41l.12,0,44.94,16.34a.54.54,0,0,1,.34.69h0A.55.55,0,0,1,224.27,360.83Z" fill="#2f2e41" data-secondary="true"/>
<path d="M232.94,355.86a.52.52,0,0,1-.57.12l-17.62-6.4a.55.55,0,0,1,.37-1h0l17.6,6.4a.56.56,0,0,1,.34.71h0A.63.63,0,0,1,232.94,355.86Z" fill="#2f2e41" data-secondary="true"/>
<path d="M210.27,347.58a.56.56,0,0,1-.58.13l-22.24-8.09a.55.55,0,0,1-.34-.7h0a.56.56,0,0,1,.71-.33L210,346.7a.55.55,0,0,1,.33.7h0A.56.56,0,0,1,210.27,347.58Z" fill="#2f2e41" data-secondary="true"/>
<path d="M185.52,385a.52.52,0,0,1-.53.14.57.57,0,0,1-.4-.68l3.87-14.24a.58.58,0,0,1,.69-.39.57.57,0,0,1,.38.68l-3.87,14.24A.44.44,0,0,1,185.52,385Z" fill="#2f2e41" data-secondary="true"/>
<path d="M177.86,383.91a.55.55,0,0,1-.92-.54l3.87-14.24a.55.55,0,0,1,.7-.35.56.56,0,0,1,.36.65L178,383.66A.58.58,0,0,1,177.86,383.91Z" fill="#2f2e41" data-secondary="true"/>
<path d="M170.2,382.78a.56.56,0,0,1-.54.15.58.58,0,0,1-.38-.68L173.15,368a.54.54,0,0,1,.65-.4h0a.56.56,0,0,1,.4.68l-3.87,14.24A.61.61,0,0,1,170.2,382.78Z" fill="#2f2e41" data-secondary="true"/>
<path d="M220.31,346.06a.55.55,0,0,1-.78,0,.55.55,0,0,1-.14-.53l3.86-14.24a.54.54,0,0,1,.66-.39h0a.56.56,0,0,1,.4.68l-3.86,14.24A.64.64,0,0,1,220.31,346.06Z" fill="#2f2e41" data-secondary="true"/>
<path d="M212.65,344.94a.54.54,0,0,1-.78,0,.56.56,0,0,1-.14-.51l3.87-14.24a.54.54,0,1,1,1.05.29l-3.86,14.24A.52.52,0,0,1,212.65,344.94Z" fill="#2f2e41" data-secondary="true"/>
<path d="M205,343.84a.57.57,0,0,1-.54.15.56.56,0,0,1-.39-.69L207.9,329a.56.56,0,0,1,.68-.38.54.54,0,0,1,.4.65v0l-3.86,14.24A.5.5,0,0,1,205,343.84Z" fill="#2f2e41" data-secondary="true"/>
<path d="M237.4,305a5.7,5.7,0,0,1-4.57,1.69c-5.84-.33-13.18-7.64-16.71-16.62A28.1,28.1,0,0,1,214.45,274a21.37,21.37,0,0,0-12.69.17c-16.79,6.18-21.27,29.3-15.91,48.08,2.33,8.16,2.26,13.87-.21,17a5.63,5.63,0,0,1-4.33,2.23.55.55,0,0,1-.55-.55.54.54,0,0,1,.54-.55h.07a4.6,4.6,0,0,0,3.52-1.83c1.52-1.94,2.75-6.28,0-16-5.5-19.26-.79-43,16.58-49.44a22.35,22.35,0,0,1,13.3-.3,25.06,25.06,0,0,1,6.35-11.29.54.54,0,0,1,.78,0h0a.57.57,0,0,1,0,.78,24,24,0,0,0-6.13,10.82A40.35,40.35,0,0,1,234.08,285c5.68,6.51,7.36,13.19,4.62,18.32A7.84,7.84,0,0,1,237.4,305Zm-21.91-30.77a27.88,27.88,0,0,0,1.69,15.4c3.34,8.47,10.4,15.63,15.74,15.93a4.82,4.82,0,0,0,4.78-2.84c2.51-4.7.88-10.92-4.51-17A39.35,39.35,0,0,0,215.49,274.26Z" fill="#2f2e41" data-secondary="true"/>
</g>
<g id="b438ed83-4911-4366-af4c-15cf8b4a365a" data-name="freepik--buttons-2--inject-262">
<path d="M533.82,88.44a36.89,36.89,0,1,1,0-52.17h0A36.92,36.92,0,0,1,533.82,88.44ZM482.73,37.35a35.36,35.36,0,1,0,50,0h0A35.42,35.42,0,0,0,482.73,37.35Z" fill="#2f2e41" data-secondary="true"/>
<path d="M529.66,84.28a31,31,0,1,1,0-43.85h0A31,31,0,0,1,529.66,84.28ZM486.91,41.52a29.47,29.47,0,1,0,41.68,0l0,0A29.51,29.51,0,0,0,486.91,41.52Z" fill="#2f2e41" data-secondary="true"/>
<path d="M501.93,67.6a3.45,3.45,0,1,1,0-4.88h0a3.44,3.44,0,0,1,0,4.86Zm-3.78-3.78a1.91,1.91,0,1,0,2.71,0A1.9,1.9,0,0,0,498.15,63.82Z" fill="#2f2e41" data-secondary="true"/>
<path d="M509,56.75a3.44,3.44,0,1,1,0-4.87,3.43,3.43,0,0,1,0,4.87ZM505.22,53a1.92,1.92,0,1,0,2.71,0h0A1.93,1.93,0,0,0,505.22,53Z" fill="#2f2e41" data-secondary="true"/>
<path d="M511.91,73.41a3.43,3.43,0,1,1,0-4.86,3.43,3.43,0,0,1,0,4.86Zm-3.77-3.77a1.9,1.9,0,1,0,2.69,0,1.9,1.9,0,0,0-2.69,0Z" fill="#2f2e41" data-secondary="true"/>
<path d="M519,62.59a3.45,3.45,0,1,1,0-4.87l0,0A3.43,3.43,0,0,1,519,62.59Zm-3.78-3.78a1.92,1.92,0,1,0,2.71,0h0a1.9,1.9,0,0,0-2.69-.06l0,0Z" fill="#2f2e41" data-secondary="true"/>
<path d="M393.09,132.74a23.39,23.39,0,1,1,0-33.08h0A23.42,23.42,0,0,1,393.09,132.74Zm-32-32a21.86,21.86,0,1,0,30.93,0A21.86,21.86,0,0,0,361.09,100.74Z" fill="#2f2e41" data-secondary="true"/>
<path d="M390.48,130.13a19.7,19.7,0,1,1,0-27.86h0A19.73,19.73,0,0,1,390.48,130.13ZM363.7,103.35a18.17,18.17,0,1,0,25.71,0A18.19,18.19,0,0,0,363.7,103.35Z" fill="#2f2e41" data-secondary="true"/>
<path d="M373.1,119.67a2.44,2.44,0,1,1,0-3.45h0A2.43,2.43,0,0,1,373.1,119.67Zm-2.36-2.36a.9.9,0,1,0,1.28,0h0a.89.89,0,0,0-1.26,0h0Z" fill="#2f2e41" data-secondary="true"/>
<path d="M377.55,112.89a2.45,2.45,0,1,1,0-3.47l0,0A2.44,2.44,0,0,1,377.55,112.89Zm-2.38-2.38a.93.93,0,0,0,0,1.3.91.91,0,0,0,1.3,0,.9.9,0,0,0,0-1.29v0a.92.92,0,0,0-1.28,0Z" fill="#2f2e41" data-secondary="true"/>
<path d="M379.42,123.27a2.45,2.45,0,1,1-.13-3.46l.09.08A2.43,2.43,0,0,1,379.42,123.27Zm-2.37-2.37a.92.92,0,1,0,1.28,1.32.93.93,0,0,0,0-1.3h0a.9.9,0,0,0-1.28,0Z" fill="#2f2e41" data-secondary="true"/>
<path d="M383.8,116.54a2.45,2.45,0,1,1,0-3.47h0A2.46,2.46,0,0,1,383.8,116.54Zm-2.38-2.38a.92.92,0,0,0,1.28,1.33.91.91,0,0,0,0-1.3l0,0A.91.91,0,0,0,381.42,114.16Z" fill="#2f2e41" data-secondary="true"/>
<path d="M429.57,49a23.41,23.41,0,1,1,0-33.1h0A23.43,23.43,0,0,1,429.57,49Zm-32-32a21.88,21.88,0,1,0,30.94,0l0,0A21.88,21.88,0,0,0,397.56,17Z" fill="#2f2e41" data-secondary="true"/>
<path d="M427,46.42a19.71,19.71,0,1,1,0-27.88h0A19.73,19.73,0,0,1,427,46.42ZM400.17,19.63a18.19,18.19,0,1,0,25.72,0l0,0A18.2,18.2,0,0,0,400.17,19.63Z" fill="#2f2e41" data-secondary="true"/>
<path d="M409.6,36a2.45,2.45,0,1,1,0-3.47h0A2.47,2.47,0,0,1,409.6,36Zm-2.37-2.37a.92.92,0,1,0,1.29,0l0,0a.92.92,0,0,0-1.3,0h0Z" fill="#2f2e41" data-secondary="true"/>
<path d="M414,29.17a2.44,2.44,0,1,1,0-3.45A2.44,2.44,0,0,1,414,29.17Zm-2.36-2.37a.89.89,0,0,0,0,1.28.88.88,0,0,0,1.27,0,.89.89,0,0,0,0-1.28h0A.9.9,0,0,0,411.66,26.8Z" fill="#2f2e41" data-secondary="true"/>
<path d="M415.84,39.61a2.44,2.44,0,1,1,0-3.45l0,0A2.44,2.44,0,0,1,415.84,39.61Zm-2.36-2.36a.9.9,0,1,0,1.27,0h0a.88.88,0,0,0-1.25,0Z" fill="#2f2e41" data-secondary="true"/>
<path d="M420.27,32.82a2.44,2.44,0,1,1,0-3.45h0A2.44,2.44,0,0,1,420.27,32.82Zm-2.36-2.37a.89.89,0,0,0,0,1.28.88.88,0,0,0,1.27,0,.9.9,0,0,0-1.27-1.28Z" fill="#2f2e41" data-secondary="true"/>
</g>
<g id="b0e154f0-f0c6-42d3-867e-3c0dfdd97530" data-name="freepik--Thimble--inject-262">
<path d="M112,404.93a.8.8,0,0,1-.55.22H42.83a.78.78,0,0,1-.74-.74l-3.42-43a.78.78,0,0,1,.64-.81l67.82-10.76a.71.71,0,0,1,.58.15.76.76,0,0,1,.31.54l4.23,53.76a.78.78,0,0,1-.19.59Zm-68.48-1.32h67.15l-4.17-52.09L40.26,362Z" fill="#2f2e41" data-secondary="true"/>
<path d="M118.18,407.78a4.21,4.21,0,0,1-7.19-2.67L106.63,350a4.22,4.22,0,1,1,8.42-.66l4.35,55.13a4.2,4.2,0,0,1-1,3.12Zm-9.26-60.07-.15.16a2.54,2.54,0,0,0-.64,2L112.51,405a2.74,2.74,0,0,0,.93,1.85,2.69,2.69,0,0,0,3.78-.29l0,0a2.69,2.69,0,0,0,.63-2l-4.35-55.13h0a2.66,2.66,0,0,0-.93-1.84,2.75,2.75,0,0,0-2-.64,2.64,2.64,0,0,0-1.69.78Z" fill="#2f2e41" data-secondary="true"/>
<path d="M58.15,397.53a3.38,3.38,0,0,1-2.1,1,3.35,3.35,0,0,1-3.61-3.07,3.35,3.35,0,0,1,3.08-3.61h0a3.27,3.27,0,0,1,2.4.74,3.34,3.34,0,0,1,.46,4.7Zm-3.65-3.65-.1.1A1.72,1.72,0,0,0,54,395.3a1.84,1.84,0,0,0,.62,1.26,2,2,0,0,0,1.34.42A1.81,1.81,0,0,0,57.6,395h0a1.79,1.79,0,0,0-1.89-1.69h-.07a1.8,1.8,0,0,0-1.17.5Z" fill="#2f2e41" data-secondary="true"/>
<path d="M57.39,388.35a3.38,3.38,0,0,1-5.74-2v0a3.34,3.34,0,0,1,3-3.61h0a3.37,3.37,0,0,1,3.62,3.08A3.42,3.42,0,0,1,57.39,388.35Zm-3.65-3.65-.1.09a1.82,1.82,0,0,0-.43,1.32,1.79,1.79,0,0,0,1.89,1.69h.07a1.82,1.82,0,0,0,1.68-2h0a1.83,1.83,0,0,0-2-1.67h0a1.84,1.84,0,0,0-1.18.49Z" fill="#2f2e41" data-secondary="true"/>
<path d="M56.67,379.2a3.35,3.35,0,0,1-4.52.2A3.3,3.3,0,0,1,51,377.11a3.35,3.35,0,1,1,6.66-.79,2.28,2.28,0,0,1,0,.26,3.37,3.37,0,0,1-.8,2.45ZM53,375.54a1.85,1.85,0,0,0-.52,1.43,1.82,1.82,0,0,0,3.63-.29,1.84,1.84,0,0,0-2-1.67A1.76,1.76,0,0,0,53,375.54Z" fill="#2f2e41" data-secondary="true"/>
<path d="M56,370.05a3.36,3.36,0,1,1-2.63-5.71h0A3.36,3.36,0,0,1,56,370.05Zm-3.66-3.66a1.78,1.78,0,0,0-.52,1.43,1.82,1.82,0,1,0,1.68-2h0A1.81,1.81,0,0,0,52.29,366.39Z" fill="#2f2e41" data-secondary="true"/>
<path d="M66.88,392.31a3.36,3.36,0,0,1-2.1,1,3.28,3.28,0,0,1-2.45-.81,3.34,3.34,0,0,1,1.9-5.87h0a3.28,3.28,0,0,1,2.44.79,3.36,3.36,0,0,1,.39,4.73Zm-3.66-3.66-.1.1a1.72,1.72,0,0,0-.43,1.32,1.82,1.82,0,0,0,.62,1.25,1.91,1.91,0,0,0,1.34.43,1.89,1.89,0,0,0,1.23-.63,1.75,1.75,0,0,0,.42-1.33,1.81,1.81,0,0,0-.61-1.25,1.85,1.85,0,0,0-1.34-.42h0A1.74,1.74,0,0,0,63.22,388.65Z" fill="#2f2e41" data-secondary="true"/>
<path d="M66.15,383.16a3.36,3.36,0,1,1-2.63-5.71h0a3.24,3.24,0,0,1,2.44.79,3.34,3.34,0,0,1,1.18,2.29,3.4,3.4,0,0,1-.8,2.44Zm-3.65-3.65a1.82,1.82,0,0,0,1.43,3.09,1.86,1.86,0,0,0,1.24-.62,1.82,1.82,0,0,0,.44-1.34A1.93,1.93,0,0,0,65,379.4a1.84,1.84,0,0,0-1.33-.42h0A1.79,1.79,0,0,0,62.5,379.51Z" fill="#2f2e41" data-secondary="true"/>
<path d="M65.39,374a3.31,3.31,0,0,1-2,1,3.38,3.38,0,0,1-2.44-.79,3.28,3.28,0,0,1-1.16-2.29,3.35,3.35,0,0,1,6.66-.79,2.46,2.46,0,0,1,0,.26A3.39,3.39,0,0,1,65.39,374Zm-3.65-3.65-.09.09a1.84,1.84,0,0,0-.44,1.33,1.82,1.82,0,0,0,.64,1.24,1.72,1.72,0,0,0,1.32.43,1.82,1.82,0,1,0-.09-3.64l-.2,0h0A1.79,1.79,0,0,0,61.74,370.39Z" fill="#2f2e41" data-secondary="true"/>
<path d="M64.77,364.92a3.37,3.37,0,0,1-4.75,0,3.33,3.33,0,0,1-1-2.1,3.23,3.23,0,0,1,.79-2.43,3.31,3.31,0,0,1,2.27-1.17h0a3.35,3.35,0,0,1,3.62,3.07A3.39,3.39,0,0,1,64.77,364.92Zm-3.67-3.67-.09.1a1.83,1.83,0,0,0-.49,1.31,1.8,1.8,0,0,0,1.94,1.67h0a1.82,1.82,0,0,0,1.68-1.95h0a1.87,1.87,0,0,0-.63-1.23,1.83,1.83,0,0,0-1.34-.44h0a1.83,1.83,0,0,0-1.13.5Z" fill="#2f2e41" data-secondary="true"/>
<path d="M74.45,396.22a3.31,3.31,0,0,1-2.09,1,3.36,3.36,0,1,1-.54-6.69h0a3.35,3.35,0,0,1,2.63,5.73Zm-3.66-3.66a1.82,1.82,0,0,0,2.56,2.6A1.82,1.82,0,0,0,71.94,392h0a1.75,1.75,0,0,0-1.09.45Z" fill="#2f2e41" data-secondary="true"/>
<path d="M73.73,387.06a3.45,3.45,0,0,1-5.83-2,3.37,3.37,0,0,1,2.94-3.73l.26,0h0a3.39,3.39,0,0,1,2.42.81,3.36,3.36,0,0,1,.21,4.9Zm-3.66-3.66-.1.1a1.8,1.8,0,0,0-.44,1.33,1.82,1.82,0,0,0,3.63-.3,1.73,1.73,0,0,0-.63-1.23,1.77,1.77,0,0,0-1.32-.44h0a1.85,1.85,0,0,0-1.12.56Z" fill="#2f2e41" data-secondary="true"/>
<path d="M73,377.91a3.33,3.33,0,0,1-4.53.18,3.3,3.3,0,0,1-1.18-2.29,3.35,3.35,0,1,1,5.9,1.92Zm-3.65-3.65a1.82,1.82,0,1,0,2.35-.09A1.83,1.83,0,0,0,69.35,374.26Z" fill="#2f2e41" data-secondary="true"/>
<path d="M72.29,368.76a3.3,3.3,0,0,1-2.11,1,3.36,3.36,0,0,1-1.34-6.58,3.29,3.29,0,0,1,.77-.06h0a3.34,3.34,0,0,1,3.6,3.08h0a3.34,3.34,0,0,1-.79,2.44Zm-3.66-3.66a1.81,1.81,0,0,0,1.48,3.14,1.75,1.75,0,0,0,1.23-.63,1.82,1.82,0,0,0-.18-2.55h0a1.77,1.77,0,0,0-2.45.09Z" fill="#2f2e41" data-secondary="true"/>
<path d="M81.51,391.15a3.36,3.36,0,0,1-2.1,1,3.28,3.28,0,0,1-2.44-.79,3.36,3.36,0,0,1,2-5.93h0a3.34,3.34,0,0,1,2.64,5.71Zm-3.65-3.65-.1.1a1.82,1.82,0,0,0,1.47,3h.06A1.81,1.81,0,0,0,81,388.66h0A1.83,1.83,0,0,0,79,387h0A1.89,1.89,0,0,0,77.86,387.5Z" fill="#2f2e41" data-secondary="true"/>
<path d="M80.8,382a3.36,3.36,0,0,1-5.72-2.09h0a3.35,3.35,0,0,1,3.06-3.61,3.39,3.39,0,0,1,3.62,3.08,3.33,3.33,0,0,1-.8,2.44Zm-3.66-3.66a1.77,1.77,0,0,0-.52,1.43,1.68,1.68,0,0,0,.62,1.23,1.8,1.8,0,0,0,1.33.44,1.85,1.85,0,0,0,1.23-.63,1.82,1.82,0,0,0-1.52-3h0A1.74,1.74,0,0,0,77.14,378.35Z" fill="#2f2e41" data-secondary="true"/>
<path d="M82.28,400.93a3.18,3.18,0,0,1-2.07.92,3.35,3.35,0,0,1-.53-6.68h0a3.36,3.36,0,0,1,2.83,5.51Zm-3.66-3.66-.09.09a1.9,1.9,0,0,0-.43,1.34,1.82,1.82,0,0,0,2,1.66,1.77,1.77,0,0,0,1.24-.63,1.82,1.82,0,0,0-.19-2.55h0a1.81,1.81,0,0,0-1.33-.44h0a1.89,1.89,0,0,0-1.14.53Z" fill="#2f2e41" data-secondary="true"/>
<path d="M67.65,402.09a3.27,3.27,0,1,1,1-2.6,3.39,3.39,0,0,1-.8,2.44ZM64,398.43a1.81,1.81,0,0,0-.05,2.56,1.85,1.85,0,0,0,1.48.54,1.82,1.82,0,0,0,1.68-1.93v0a1.77,1.77,0,0,0-.63-1.25,1.84,1.84,0,0,0-1.33-.43h0a1.74,1.74,0,0,0-1.13.53Z" fill="#2f2e41" data-secondary="true"/>
<path d="M80.07,372.86a3.36,3.36,0,1,1-2.64-5.72h0a3.35,3.35,0,0,1,2.64,5.72Zm-3.66-3.67a1.83,1.83,0,1,0,1.15-.52h0A1.76,1.76,0,0,0,76.41,369.19Z" fill="#2f2e41" data-secondary="true"/>
<path d="M79.35,363.7a3.34,3.34,0,0,1-4.73,0,3.28,3.28,0,0,1-1-2.14A3.32,3.32,0,0,1,76.7,358h0a3.36,3.36,0,0,1,2.64,5.71ZM75.68,360l-.09.1a1.77,1.77,0,0,0-.44,1.32,1.83,1.83,0,0,0,3.65-.09,1.23,1.23,0,0,0,0-.2,1.83,1.83,0,0,0-.63-1.24,1.73,1.73,0,0,0-1.33-.42h0A1.76,1.76,0,0,0,75.68,360Z" fill="#2f2e41" data-secondary="true"/>
</g>
<g id="b4b2490a-3741-43da-bd87-e8785c75adc2" data-name="freepik--pins-1--inject-262">
<path d="M275,559.81a4.91,4.91,0,1,1,0-6.95h0A4.91,4.91,0,0,1,275,559.81ZM269.1,554a3.78,3.78,0,1,0,.06-.05Z" fill="#2f2e41" data-secondary="true"/>
<path d="M336.74,621.59a.79.79,0,0,1-1.08,0L273,560.86a.78.78,0,0,1,0-1.09l1.89-1.88a.76.76,0,0,1,.55-.23.79.79,0,0,1,.54.24l60.74,62.62A.77.77,0,0,1,336.74,621.59ZM274.67,560.3l26,25.22-25.24-26Z" fill="#2f2e41" data-secondary="true"/>
<path d="M295.53,534.33a4.92,4.92,0,1,1,0-7,5,5,0,0,1,.86,1.14h0A4.94,4.94,0,0,1,295.53,534.33Zm-5.86-5.86a3.38,3.38,0,0,0,4,5.36h0a3.38,3.38,0,0,0-3.24-5.93A3.62,3.62,0,0,0,289.67,528.47Zm6.06.44" fill="#2f2e41" data-secondary="true"/>
<path d="M336.43,611.71l-.15.15a.79.79,0,0,1-1-.29l-42.94-76a.86.86,0,0,1-.07-.59.79.79,0,0,1,.42-.42l2.33-1.27a.76.76,0,0,1,.59-.06.79.79,0,0,1,.42.42l40.57,77.12A.74.74,0,0,1,336.43,611.71ZM294,535.53l17.84,31.55L295,535Z" fill="#2f2e41" data-secondary="true"/>
<path d="M379.65,615.89A4.64,4.64,0,0,1,378,617a4.9,4.9,0,1,1,2.72-6.37h0a4.92,4.92,0,0,1-1.09,5.29ZM373.79,610a3.43,3.43,0,0,0-.71,3.62,3.36,3.36,0,0,0,4.38,1.87h0a3.38,3.38,0,0,0-2.5-6.27,3.43,3.43,0,0,0-1.17.78Z" fill="#2f2e41" data-secondary="true"/>
<path d="M376.37,608.49a.77.77,0,0,1-.22.22l-2.47,1a.74.74,0,0,1-1-.4v0l-31.17-81.49a.75.75,0,0,1,.43-1h0a.77.77,0,0,1,1,.41l33.58,80.46a.73.73,0,0,1,0,.58A.6.6,0,0,1,376.37,608.49Zm-2.58-.56,1-.4-13.95-33.45Z" fill="#2f2e41" data-secondary="true"/>
<path d="M352.08,587.33a4.64,4.64,0,0,1-1.64,1.08,4.91,4.91,0,0,1-6.37-2.73h0a4.9,4.9,0,1,1,8,1.65Zm-5.84-5.85a3.48,3.48,0,0,0-.73,1,3.42,3.42,0,0,0,0,2.59h0a3.41,3.41,0,1,0,2-4.44,3.46,3.46,0,0,0-1.2.8Zm-1.48,3.92" fill="#2f2e41" data-secondary="true"/>
<path d="M348.8,579.93a.7.7,0,0,1-.21.21l-2.47,1a.76.76,0,0,1-1-.4v0L314,499.2a.76.76,0,0,1,.46-1,.77.77,0,0,1,1,.4L349,579.09a.86.86,0,0,1,0,.59A.7.7,0,0,1,348.8,579.93Zm-2.56-.55,1-.42-14-33.46Z" fill="#2f2e41" data-secondary="true"/>
</g>
<path d="M477.72,281.08a13.47,13.47,0,0,1-2.77,3.81c-6.54,6.38-10.53,11.8-10.42,14.15a1,1,0,0,1-.95,1,1,1,0,0,1-1.05-.95c-.19-4.1,6.82-11.59,11-15.69a11.31,11.31,0,0,0,2.31-3.12" fill="#2f2e41" data-secondary="true"/>
<path d="M535.23,294.64s-5.26-2.48-10.07-1.41a5.3,5.3,0,0,0-3.67,7.41c2.11,4.72,8.49,11.52,27.7,13.06,0,0-8.32,4-10.2,6.18,0,0,17,1.74,23.62,7l4.83-2.14,4.84-19.6Z" fill="#f7a48b"/>
<path d="M521.81,296s-5.63-1.08-3.49-4.84l9.67,1.61S522.62,292.76,521.81,296Z" fill="#61b198" data-primary="true"/>
<path d="M542.47,288.48l-99.72-21.17a47,47,0,0,1-5.71-1.62c-3.37-1.18-9.45-2.46-8.7,3.94a11.3,11.3,0,0,0,2.27,5.54,15.23,15.23,0,0,0,9.78,5.75,2.2,2.2,0,0,0,2.14-3.49,19.15,19.15,0,0,0-3.6-3.47,1.54,1.54,0,0,1,1.23-2.74,17.49,17.49,0,0,1,3.75,1.27,71.3,71.3,0,0,0,11.89,4c18.47,4.53,64.24,15.61,82.74,18.76Z" fill="#d1d3d4"/>
<line x1="555.96" y1="306.96" x2="555.96" y2="312.1" fill="none" stroke="#ef927d" stroke-miterlimit="10"/>
<path d="M727.78,332.36a6.88,6.88,0,0,1-6.65,5.16,7.06,7.06,0,0,1-1.36-.14L540.36,304.15a6,6,0,0,1-4.84-6.77l1.6-10.73a4.8,4.8,0,0,1,.18-.77,6,6,0,0,1,7.13-4.18l178.22,42.24a6.88,6.88,0,0,1,5.31,6A6.76,6.76,0,0,1,727.78,332.36Z" fill="#2f2e41" data-secondary="true"/>
<path d="M475.06,543.15c-24.79-4-51.23,2-51.23,2-26.43,4.63-32.71,4.3-32.71,4.3-41,1.32-51.56-66.1-51.56-66.1l-12.89-63.12c-12.89-50.56-20.16-65.1-20.16-65.1s-5.62-7.61,10.25-10.25c0,0,43.29-15.2,58.16-22.14l30.33-16.05s31.29-17.14,62.57-3.43c0,0,28.72,13.29,61.29,15.43,0,0,25.87,1.8,33.5,8.18,0,0,10.78,41.25,7.35,63.54,0,0-7.64,54.33,3.61,63.88l.48,28.83s3.91,56.14-16.09,57c0,0-16.57-.57-22.57,3.71,0,0-15.85,9.36-46.55,1.55a76.35,76.35,0,0,0-10.94-1.92Z" fill="#61b198" data-primary="true"/>
<path d="M475.06,543.15c-24.79-4-51.23,2-51.23,2-26.43,4.63-32.71,4.3-32.71,4.3-41,1.32-51.56-66.1-51.56-66.1l-12.89-63.12c-12.89-50.56-20.16-65.1-20.16-65.1s-5.62-7.61,10.25-10.25c0,0,43.29-15.2,58.16-22.14l30.33-16.05s31.29-17.14,62.57-3.43c0,0,28.72,13.29,61.29,15.43,0,0,25.87,1.8,33.5,8.18,0,0,10.78,41.25,7.35,63.54,0,0-7.64,54.33,3.61,63.88l.48,28.83s3.91,56.14-16.09,57c0,0-16.57-.57-22.57,3.71,0,0-15.85,9.36-46.55,1.55a76.35,76.35,0,0,0-10.94-1.92Z" fill="#fff" opacity="0.4"/>
<path d="M355.68,506.86a69.87,69.87,0,0,0,1.35,8.53,50.26,50.26,0,0,0,2.48,8.13c.49,1.32,1.12,2.57,1.73,3.9s1.2,2.65,1.75,4c1.14,2.67,2.21,5.38,3.1,8.17-1.64-2.43-3.1-4.94-4.5-7.48s-2.77-5.07-3.94-7.84a33.88,33.88,0,0,1-2.16-8.61A29.1,29.1,0,0,1,355.68,506.86Z" fill="#fff" opacity="0.4"/>
<path d="M366.83,508.35l1.61,9.54c.55,3.16,1.14,6.31,1.85,9.42a84.89,84.89,0,0,0,2.52,9.24c1,3.07,1.86,6.17,2.57,9.35-1.49-2.89-2.8-5.86-4-8.85a45.2,45.2,0,0,1-1.74-4.56c-.49-1.58-.89-3.15-1.26-4.74a72,72,0,0,1-1.45-9.66A57.6,57.6,0,0,1,366.83,508.35Z" fill="#fff" opacity="0.4"/>
<path d="M379.47,509.09a98.64,98.64,0,0,0,0,10c.18,3.33.46,6.64.86,9.94.2,1.66.39,3.31.67,5s.52,3.29.77,4.94.6,3.29.87,4.95.64,3.29.88,5c-.66-1.55-1.27-3.13-1.83-4.72s-1.05-3.22-1.45-4.87a76.38,76.38,0,0,1-1.9-10,69.06,69.06,0,0,1-.43-10.17A39.61,39.61,0,0,1,379.47,509.09Z" fill="#fff" opacity="0.4"/>
<path d="M387.28,506.49c.57,3.58.94,7.16,1.24,10.75s.52,7.18.69,10.77.25,7.19.25,10.79-.06,7.21-.32,10.82c-.57-3.58-.94-7.16-1.24-10.75s-.51-7.18-.69-10.77-.24-7.19-.24-10.8S387,510.1,387.28,506.49Z" fill="#fff" opacity="0.4"/>
<path d="M396.58,506.49c.65,3.5,1.1,7,1.47,10.54s.65,7.05.88,10.58.35,7.07.36,10.62a72.83,72.83,0,0,1-.48,10.64c-.33-3.53-.78-7-1.08-10.56s-.57-7-.8-10.58-.36-7.06-.43-10.6S396.4,510.05,396.58,506.49Z" fill="#fff" opacity="0.4"/>
<path d="M406.24,506.86c.84,3.34,1.44,6.72,1.94,10.11s.9,6.8,1.21,10.21.48,6.85.5,10.28a55.56,55.56,0,0,1-.67,10.3c-.23-3.43-.57-6.82-.88-10.22l-.94-10.19c-.27-3.4-.56-6.8-.76-10.21S406.25,510.31,406.24,506.86Z" fill="#fff" opacity="0.4"/>
<path d="M413.68,507.6c.78,3.19,1.62,6.32,2.64,9.37a43.53,43.53,0,0,1,2.17,9.68c.32,3.32.32,6.56.35,9.82s-.06,6.53-.33,9.8c-.57-3.23-.93-6.48-1.23-9.73-.17-1.62-.27-3.24-.4-4.87s-.19-3.22-.38-4.81a66.49,66.49,0,0,0-1.68-9.46A41.08,41.08,0,0,1,413.68,507.6Z" fill="#fff" opacity="0.4"/>
<path d="M421.49,507.23c.81,3,1.43,6.06,2,9.1s1,6.11,1.43,9.18.74,6.14,1,9.23.44,6.18.43,9.3c-.81-3-1.43-6-2-9.1s-1-6.11-1.43-9.17-.74-6.15-1-9.23S421.48,510.35,421.49,507.23Z" fill="#fff" opacity="0.4"/>
<path d="M430.41,508c.43,2.95.74,5.9,1,8.84s.53,5.88.8,8.82l1.52,17.66a54.3,54.3,0,0,1-2.32-8.64c-.55-2.93-.92-5.89-1.2-8.85s-.38-5.94-.36-8.92A70,70,0,0,1,430.41,508Z" fill="#fff" opacity="0.4"/>
<path d="M439.33,511c.57,2.61.94,5.23,1.25,7.86s.51,5.25.68,7.88.25,5.27.25,7.92a78.19,78.19,0,0,1-.32,7.94A78.53,78.53,0,0,1,440,534.7c-.31-2.63-.51-5.26-.68-7.89s-.25-5.27-.25-7.91S439.08,513.61,439.33,511Z" fill="#fff" opacity="0.4"/>
<path d="M446,508.72c.6,2.7,1,5.41,1.33,8.13s.57,5.44.78,8.16.31,5.46.34,8.2,0,5.47-.22,8.23c-.6-2.7-1-5.41-1.34-8.13s-.57-5.44-.77-8.16-.31-5.46-.34-8.2S445.8,511.47,446,508.72Z" fill="#fff" opacity="0.4"/>
<path d="M453.83,507.6c.7,2.78,1.19,5.58,1.61,8.39s.76,5.62,1.06,8.43.5,5.65.62,8.48.2,5.68.06,8.54c-.69-2.78-1.19-5.58-1.61-8.38s-.76-5.62-1.06-8.44-.49-5.65-.61-8.48S453.7,510.46,453.83,507.6Z" fill="#fff" opacity="0.4"/>
<path d="M465.36,507.23c.51,2.93.82,5.87,1.06,8.81s.38,5.88.5,8.82.12,5.89.06,8.84-.18,5.9-.5,8.85c-.51-2.93-.82-5.86-1.06-8.8s-.39-5.88-.5-8.83-.12-5.88-.06-8.83S465,510.19,465.36,507.23Z" fill="#fff" opacity="0.4"/>
<path d="M473.91,506.86c.63,3,1.06,6,1.43,9s.63,6.06.87,9.1.37,6.07.43,9.12.07,6.1-.13,9.17c-.63-3-1.06-6-1.42-9.06s-.64-6-.87-9.09-.38-6.08-.43-9.12S473.72,509.93,473.91,506.86Z" fill="#fff" opacity="0.4"/>
<path d="M482.09,507.6c.63,3,1.06,6,1.43,9.06s.63,6.06.87,9.09.37,6.08.43,9.13.07,6.09-.13,9.16c-.63-3-1.06-6-1.42-9s-.64-6.06-.87-9.1-.38-6.07-.43-9.12S481.9,510.67,482.09,507.6Z" fill="#fff" opacity="0.4"/>
<path d="M489.53,509.46c.47,3.1.78,6.19,1,9.28s.45,6.19.65,9.28l.48,9.26c.08,1.54.16,3.08.28,4.62,0,.77.12,1.54.21,2.3a9.32,9.32,0,0,0,.49,2.26,7.37,7.37,0,0,1-1-2.13c-.26-.75-.45-1.51-.64-2.28-.36-1.53-.64-3.07-.87-4.62-.46-3.09-.72-6.19-.92-9.3s-.25-6.22-.21-9.33A91.51,91.51,0,0,1,489.53,509.46Z" fill="#fff" opacity="0.4"/>
<path d="M496.83,507.82c.9,3.29,1.59,6.61,2.19,9.95s1.09,6.69,1.51,10.05.72,6.75.88,10.15a52.73,52.73,0,0,1-.29,10.2c-.31-3.39-.84-6.71-1.27-10.06s-.89-6.69-1.3-10.05-.78-6.71-1.07-10.08S496.92,511.23,496.83,507.82Z" fill="#fff" opacity="0.4"/>
<path d="M507.93,508.83c.44,3.3.7,6.6.9,9.9s.32,6.6.42,9.9.13,6.59.12,9.89l0,5c0,1.65-.07,3.3.09,4.95a26.24,26.24,0,0,1-1.07-4.88c-.23-1.65-.43-3.3-.56-4.95-.31-3.3-.46-6.61-.56-9.91s-.08-6.62,0-9.93S507.54,512.14,507.93,508.83Z" fill="#fff" opacity="0.4"/>
<path d="M516.5,508.07c-.08,6.78-.44,13.48-.51,20.17-.08,3.35,0,6.69.13,10a44.58,44.58,0,0,0,1.39,9.91,26.64,26.64,0,0,1-2.94-9.76,65.71,65.71,0,0,1-.57-10.19,98.1,98.1,0,0,1,.69-10.15A77.37,77.37,0,0,1,516.5,508.07Z" fill="#fff" opacity="0.4"/>
<path d="M522.81,505.8c.7,3.41,1.21,6.84,1.65,10.28s.79,6.87,1.11,10.32.53,6.9.66,10.36.23,6.92.11,10.4c-.71-3.41-1.22-6.84-1.66-10.27s-.79-6.88-1.1-10.32-.53-6.9-.67-10.36S522.69,509.28,522.81,505.8Z" fill="#fff" opacity="0.4"/>
<path d="M530.88,504.79c.64,3.27,1.09,6.56,1.47,9.85s.66,6.58.91,9.88.4,6.6.48,9.92.09,6.62-.09,9.95c-.65-3.27-1.09-6.56-1.47-9.85s-.66-6.58-.91-9.88-.4-6.6-.48-9.91S530.69,508.12,530.88,504.79Z" fill="#fff" opacity="0.4"/>
<path d="M537.94,502.27c.83,3.21,1.46,6.44,2,9.68s1,6.48,1.48,9.74.78,6.52,1,9.8.48,6.56.49,9.87c-.83-3.2-1.47-6.43-2-9.67s-1-6.49-1.48-9.74-.78-6.53-1-9.81S538,505.58,537.94,502.27Z" fill="#fff" opacity="0.4"/>
<path d="M547.77,504.54a32.81,32.81,0,0,1,2.43,8.75,58.61,58.61,0,0,1,.65,9.07c-.11,3-.07,6-.18,9s-.26,6-.63,9c-.46-3-.73-6-.93-9-.12-1.51-.16-3-.24-4.51s0-3,0-4.5c0-3-.05-5.93-.2-8.89A87.14,87.14,0,0,0,547.77,504.54Z" fill="#fff" opacity="0.4"/>
<path d="M558.37,500.25a27.61,27.61,0,0,1,2.13,10,47.26,47.26,0,0,1-.63,10.22c-.33,1.68-.65,3.35-1.1,5l-1.26,4.87c-.41,1.62-.83,3.24-1.21,4.87a34.75,34.75,0,0,0-1,4.94,21.14,21.14,0,0,1,0-5.09c.16-1.69.37-3.37.65-5s.61-3.34.95-5,.68-3.25,1-4.88a76.28,76.28,0,0,0,1.05-9.88A47.11,47.11,0,0,0,558.37,500.25Z" fill="#fff" opacity="0.4"/>
<path d="M565.93,500a37.51,37.51,0,0,1,2.06,9.49,52.93,52.93,0,0,1,0,9.75,44.31,44.31,0,0,1-1.9,9.58c-.47,1.57-1,3-1.44,4.57a19.42,19.42,0,0,0-.79,4.69c-.75-3.19,0-6.59.72-9.65a73,73,0,0,0,1.42-9.36c.29-3.15.41-6.32.39-9.49S566.26,503.22,565.93,500Z" fill="#fff" opacity="0.4"/>
<path d="M555.25,333.24c.24,6.81.36,13.61.54,20.41l.33,20.41c.2,13.61.22,27.22.34,40.82,0,13.61,0,27.22-.12,40.82l-.23,20.42c-.14,6.8-.22,13.6-.43,20.41-.25-6.8-.36-13.61-.55-20.41l-.33-20.41c-.19-13.61-.22-27.22-.33-40.82s0-27.22.12-40.82l.23-20.42C555,346.85,555,340.05,555.25,333.24Z" fill="#fff" opacity="0.4"/>
<path d="M533.39,330.24c.53,7,.93,13.95,1.4,20.93L536,372.1c.77,14,1.36,27.92,2,41.88.53,14,1.15,27.94,1.6,41.91l.63,21c.13,7,.34,14,.42,21-.53-7-.93-13.95-1.4-20.92L538.09,456C537.32,442,536.72,428,536,414.07c-.53-14-1.15-27.93-1.59-41.9l-.63-21C533.68,344.22,533.47,337.23,533.39,330.24Z" fill="#fff" opacity="0.4"/>
<path d="M515.82,327.24c.69,7.08,1.25,14.16,1.88,21.24l1.67,21.25c1.09,14.17,2,28.35,3,42.52.85,14.18,1.79,28.36,2.56,42.55l1.11,21.29c.3,7.1.67,14.19.9,21.3-.69-7.08-1.25-14.16-1.88-21.24l-1.67-21.25c-1.09-14.17-2-28.35-3-42.52s-1.79-28.36-2.56-42.55l-1.11-21.29C516.43,341.44,516.06,334.35,515.82,327.24Z" fill="#fff" opacity="0.4"/>
<path d="M499.54,323.81c.76,7.34,1.39,14.69,2.09,22l1.88,22c1.24,14.7,2.3,29.42,3.45,44.13,1,14.72,2.07,29.43,3,44.16l1.32,22.09c.37,7.37.81,14.73,1.12,22.11-.76-7.35-1.39-14.7-2.09-22l-1.89-22.05c-1.23-14.7-2.29-29.42-3.44-44.13-1-14.72-2.08-29.43-3-44.16l-1.33-22.09C500.29,338.55,499.85,331.19,499.54,323.81Z" fill="#fff" opacity="0.4"/>
<path d="M483.25,318.67c.58,7.55,1,15.1,1.56,22.65L486.18,364l2.51,45.32,2.21,45.33L492,477.29c.3,7.56.73,15.11,1.14,22.67-.41-3.76-.83-7.53-1.14-11.3s-.67-7.54-1-11.31c-.58-7.54-1.1-15.09-1.63-22.64s-.94-15.1-1.39-22.66l-1.28-22.66c-.7-15.11-1.46-30.22-2-45.34l-.82-22.69C483.64,333.8,483.38,326.24,483.25,318.67Z" fill="#fff" opacity="0.4"/>
<path d="M466.54,310.53c.61,7.79,1.1,15.59,1.66,23.38l1.46,23.4c.95,15.6,1.72,31.21,2.59,46.81.7,15.61,1.5,31.22,2.13,46.83l.9,23.43c.22,7.81.52,15.62.68,23.43-.62-7.79-1.11-15.59-1.66-23.38L472.84,451c-.95-15.6-1.72-31.21-2.59-46.81-.7-15.61-1.5-31.22-2.12-46.83l-.9-23.43C467,326.15,466.7,318.34,466.54,310.53Z" fill="#fff" opacity="0.4"/>
<path d="M443.39,305.81c1,8,1.86,15.94,2.79,23.9l2.58,23.92c1.7,15.95,3.22,31.92,4.84,47.87,1.46,16,3,31.94,4.38,47.92l2,24c.6,8,1.27,16,1.81,24-1-8-1.86-15.94-2.79-23.9l-2.58-23.92c-1.7-15.95-3.22-31.92-4.84-47.87-1.45-16-3-31.94-4.37-47.92l-2-24C444.61,321.81,443.94,313.82,443.39,305.81Z" fill="#fff" opacity="0.4"/>
<path d="M424.11,310.53c1,7.8,1.92,15.61,2.89,23.41l2.69,23.44c1.77,15.62,3.36,31.27,5.05,46.9,1.53,15.65,3.15,31.3,4.6,47l2.13,23.49c.64,7.84,1.34,15.67,1.92,23.51-1-7.8-1.93-15.61-2.9-23.41l-2.68-23.44c-1.77-15.62-3.37-31.27-5.05-46.9-1.53-15.65-3.15-31.3-4.59-47L426,334C425.39,326.2,424.69,318.37,424.11,310.53Z" fill="#fff" opacity="0.4"/>
<path d="M405.68,323c1.06,7.26,2,14.53,3,21.8l2.79,21.82c1.85,14.56,3.51,29.13,5.27,43.69,1.6,14.58,3.29,29.15,4.81,43.74l2.24,21.89c.67,7.31,1.42,14.6,2,21.91-1.06-7.26-2-14.53-3-21.8L420,454.19c-1.84-14.56-3.51-29.13-5.26-43.69-1.6-14.58-3.29-29.15-4.81-43.74l-2.24-21.89C407,337.57,406.29,330.27,405.68,323Z" fill="#fff" opacity="0.4"/>
<path d="M386.82,326.39c1.06,7.18,2,14.39,3,21.58l2.8,21.61c1.84,14.41,3.5,28.84,5.26,43.26s3.29,28.87,4.81,43.31l2.24,21.68c.68,7.23,1.42,14.46,2,21.7-1.06-7.19-2-14.39-3-21.59l-2.8-21.61c-1.83-14.41-3.5-28.84-5.26-43.26-1.6-14.44-3.29-28.86-4.8-43.31l-2.25-21.68C388.18,340.85,387.44,333.63,386.82,326.39Z" fill="#fff" opacity="0.4"/>
<path d="M367.11,335.39c1.17,6.86,2.21,13.74,3.32,20.61l3.11,20.64c2.06,13.76,3.94,27.55,5.91,41.32s3.72,27.58,5.45,41.39l2.57,20.72c.78,6.91,1.63,13.82,2.35,20.74-1.17-6.86-2.21-13.74-3.32-20.61l-3.12-20.64c-2.05-13.76-3.94-27.55-5.91-41.32-1.81-13.8-3.71-27.59-5.44-41.39l-2.57-20.72C368.68,349.21,367.83,342.31,367.11,335.39Z" fill="#fff" opacity="0.4"/>
<path d="M348.25,344c1.33,6.48,2.53,13,3.8,19.47l3.6,19.51c2.37,13,4.57,26,6.87,39.06,2.14,13.05,4.36,26.09,6.42,39.15l3,19.6c.95,6.55,2,13.08,2.84,19.64-1.33-6.48-2.53-13-3.8-19.48l-3.6-19.5c-2.37-13-4.58-26.05-6.87-39.07-2.13-13-4.36-26.08-6.41-39.15l-3.05-19.6C350.15,357.05,349.13,350.51,348.25,344Z" fill="#fff" opacity="0.4"/>
<path d="M326.82,350.39c1.51,6.11,2.89,12.25,4.34,18.38l4.13,18.42c2.73,12.29,5.28,24.62,7.94,36.92,2.49,12.34,5.07,24.66,7.49,37l3.58,18.54c1.12,6.19,2.31,12.38,3.38,18.58-1.51-6.11-2.89-12.25-4.34-18.38l-4.13-18.42c-2.73-12.29-5.29-24.62-7.94-36.92-2.49-12.34-5.07-24.66-7.48-37L330.2,369C329.08,362.77,327.89,356.59,326.82,350.39Z" fill="#fff" opacity="0.4"/>
<path d="M345.71,290.45c4.68,13.2,16.94,30.32,23.4,38.29a1,1,0,0,1-.15,1.4,1,1,0,0,1-.63.23,1,1,0,0,1-.77-.37c-1-1.27-17.76-22-23.66-38.67" fill="#61b198" data-primary="true"/>
<path d="M628,595s-9.71.28-8.85,13.14l-.46,43.79a15.81,15.81,0,0,0,16.16,16l145.69-3.31a15.81,15.81,0,0,0,12.9-24.4c-16.51-25.62-45-62.61-71.44-61.48,0,0-28.85,2.29-51.42,8Z" fill="#61b198" data-primary="true"/>
<path d="M308,313.39l-.23,0a1,1,0,0,1-.74-1.21c.17-.69,14.11-58.22,40.8-97.69l-.5-.38a33.8,33.8,0,0,1-11.73-16.24,101.06,101.06,0,0,1-4.55-25,129.55,129.55,0,0,1,1.25-27.62c1.58-10.64,2.91-29.66-5.95-37.52-4.15-3.69-10.24-4.47-18.08-2.33l-.14,0c-.13,0-13.61,2-30.82,20.82a.3.3,0,0,1-.08.08l-10.46,9.08a1,1,0,0,1-1.31-1.52l10.42-9c17.25-18.91,30.68-21.23,31.92-21.41,8.51-2.3,15.2-1.37,19.88,2.79,9.56,8.48,8.24,28.26,6.6,39.3A128.19,128.19,0,0,0,333,172.68a99,99,0,0,0,4.46,24.52,31.75,31.75,0,0,0,11,15.29l.42.31a115.11,115.11,0,0,1,17.23-20c.28-.22,24.43-19.64,42-.66a33.06,33.06,0,0,1,7.7,14.85c1.53,6.39,2.39,15.4-2.16,22.07-3.1,4.54-8.25,7.34-15.33,8.34h-.29c-2.08,0-20-.65-48.72-21.75-26.42,39.08-40.28,96.28-40.44,97A1,1,0,0,1,308,313.39ZM350.51,214c28.56,21,46.59,21.39,47.67,21.4,6.46-.92,11.13-3.43,13.89-7.47,4.14-6.07,3.3-14.49,1.87-20.48a31.13,31.13,0,0,0-7.23-14c-16.33-17.61-39,.65-39.25.83A112.57,112.57,0,0,0,350.51,214Z" fill="#61b198" data-primary="true"/>
<path d="M205.11,247.1c-39.94,0-72.43-33.39-72.43-74.43s32.49-74.43,72.43-74.43,72.43,33.39,72.43,74.43S245,247.1,205.11,247.1Zm0-146.86c-38.84,0-70.43,32.49-70.43,72.43s31.59,72.43,70.43,72.43,70.43-32.49,70.43-72.43S243.94,100.24,205.11,100.24Z" fill="#61b198" data-primary="true"/>
<path d="M174,224.25a95.53,95.53,0,0,1-23.45-2.73,1,1,0,0,1-.69-1.24,1,1,0,0,1,1.23-.68c.54.15,53.8,14.68,88.09-26.9.28-.29,22.3-23.82,18.86-67.59a1,1,0,1,1,2-.16c3.5,44.72-19.13,68.84-19.36,69.08-18.32,22.21-41.87,28.52-58.38,29.88C179.44,224.15,176.66,224.25,174,224.25Z" fill="#61b198" data-primary="true"/>
<path d="M180.14,230.28a96.82,96.82,0,0,1-23.34-2.66,1,1,0,0,1-.69-1.24,1,1,0,0,1,1.23-.69c.51.14,51.63,14,84.68-23.75.63-.72,1.26-1.43,1.92-2.13,6.47-6.93,21.41-27.27,20.33-66.3a1,1,0,0,1,1-1,1,1,0,0,1,1,1c1.1,39.77-14.23,60.61-20.87,67.72-.64.69-1.26,1.39-1.88,2.09C224,225.52,198.46,230.28,180.14,230.28Z" fill="#61b198" data-primary="true"/>
<path d="M185,235.59a120.28,120.28,0,0,1-21.19-1.94,1,1,0,0,1-.8-1.16,1,1,0,0,1,1.16-.81c42.06,7.54,67.17-9.3,73.87-14.64.36-.29.74-.57,1.11-.85l.54-.41c32.6-25,30.77-68.85,30.75-69.29a1,1,0,0,1,.95-1,1,1,0,0,1,1.05.94c0,.45,1.91,45.3-31.54,71l-.54.42-1.07.83C233.67,223.11,215.26,235.59,185,235.59Z" fill="#61b198" data-primary="true"/>
<path d="M192.78,241.15a130.13,130.13,0,0,1-19.25-1.49,1,1,0,0,1-.84-1.14,1,1,0,0,1,1.14-.84c40.5,6.08,62.24-8.49,66.18-11.48.73-.54,1.47-1.06,2.21-1.57l.33-.23c30.42-21.12,32.78-57.18,32.8-57.54a1,1,0,0,1,1.06-.94,1,1,0,0,1,.94,1.05c0,.38-2.42,37.38-33.66,59.07l-.33.23c-.72.5-1.44,1-2.14,1.53C237.85,230.35,221.83,241.15,192.78,241.15Z" fill="#61b198" data-primary="true"/>
<path d="M248.67,180.16a1,1,0,0,1-.71-.29c-40.55-40.8-107.83-35.17-108.5-35.11a1,1,0,1,1-.18-2c.68-.07,68.9-5.77,110.1,35.69a1,1,0,0,1,0,1.41A1,1,0,0,1,248.67,180.16Z" fill="#61b198" data-primary="true"/>
<path d="M252,172.93a1,1,0,0,1-.66-.26c-47.4-42.32-108.22-34-108.83-33.95a1,1,0,0,1-.29-2c.62-.09,62.34-8.52,110.45,34.44a1,1,0,0,1,.08,1.41A1,1,0,0,1,252,172.93Z" fill="#61b198" data-primary="true"/>
<path d="M254.87,165.69a1,1,0,0,1-.65-.24C205.78,123.86,146.6,133,146,133.06a1,1,0,0,1-1.15-.83,1,1,0,0,1,.83-1.14c.6-.1,60.7-9.35,109.84,32.84a1,1,0,0,1-.65,1.76Z" fill="#61b198" data-primary="true"/>
<path d="M256.93,158.46a1,1,0,0,1-.67-.26c-41.54-38-105.15-31.14-105.79-31.07a1,1,0,0,1-.23-2c.65-.07,65.15-7,107.37,31.58a1,1,0,0,1-.68,1.74Z" fill="#61b198" data-primary="true"/>
<path d="M258,150.19a1,1,0,0,1-.69-.28c-36.45-34.67-100.39-29.49-101-29.44a1,1,0,0,1-.18-2c.65-.06,65.48-5.32,102.59,30a1,1,0,0,1-.69,1.73Z" fill="#61b198" data-primary="true"/>
<path d="M259,141.66a1,1,0,0,1-.66-.25c-33.68-29.88-93.42-27.91-94-27.88a1,1,0,0,1-.07-2c.61,0,61.15-2,95.41,28.38a1,1,0,0,1-.66,1.75Z" fill="#61b198" data-primary="true"/>
<path d="M182,113.76a1,1,0,0,1-1-.87c-.87-6.33-1.95-7.7-2.07-7.84a1,1,0,0,1,1.23-1.57c.52.36,1.84,2,2.82,9.14a1,1,0,0,1-.85,1.13Z" fill="#61b198" data-primary="true"/>
<path d="M190.27,114.53a1,1,0,0,1-1-.94c-.49-8-2.73-11.14-2.75-11.18a1,1,0,0,1,.2-1.39,1,1,0,0,1,1.4.19c.1.14,2.62,3.53,3.15,12.26a1,1,0,0,1-.94,1.06Z" fill="#61b198" data-primary="true"/>
<path d="M197,115.24h0a1,1,0,0,1-1-1c.25-8.37-2.42-13.37-2.44-13.42a1,1,0,0,1,.39-1.35,1,1,0,0,1,1.36.39c.12.22,3,5.49,2.69,14.44A1,1,0,0,1,197,115.24Z" fill="#61b198" data-primary="true"/>
<path d="M204.57,116.64a1,1,0,0,1-1-.94c-.74-12.08-2.92-15.67-2.95-15.7a1,1,0,0,1,1.68-1.1c.1.16,2.49,3.89,3.27,16.67a1,1,0,0,1-.94,1.06Z" fill="#61b198" data-primary="true"/>
<path d="M212.49,118.41a1,1,0,0,1-1-1,73.93,73.93,0,0,0-3.56-17.81,1,1,0,0,1,.61-1.27,1,1,0,0,1,1.28.61,74.93,74.93,0,0,1,3.67,18.36,1,1,0,0,1-.94,1.06Z" fill="#61b198" data-primary="true"/>
<path d="M220.5,120.73a1,1,0,0,1-1-.92,70.1,70.1,0,0,0-4.28-19,1,1,0,0,1,.54-1.3,1,1,0,0,1,1.31.54,70.53,70.53,0,0,1,4.43,19.62,1,1,0,0,1-.93,1.07Z" fill="#61b198" data-primary="true"/>
<path d="M228.25,123.32a1,1,0,0,1-1-.89c-1.51-12.8-5.22-20-5.25-20a1,1,0,0,1,1.77-.94c.16.31,3.91,7.54,5.47,20.75a1,1,0,0,1-.88,1.11Z" fill="#61b198" data-primary="true"/>
<path d="M236,126.81a1,1,0,0,1-1-.86,112,112,0,0,0-5.41-21.21,1,1,0,0,1,.59-1.29,1,1,0,0,1,1.28.58A114.15,114.15,0,0,1,237,125.68a1,1,0,0,1-.85,1.12Z" fill="#61b198" data-primary="true"/>
<path d="M244.27,130.55a1,1,0,0,1-1-.85c-2-13.43-4.9-21-4.93-21.1a1,1,0,0,1,1.87-.72c.12.32,3,7.88,5,21.52a1,1,0,0,1-.84,1.14Z" fill="#61b198" data-primary="true"/>
<path d="M250.43,134.53a1,1,0,0,1-1-1,72.83,72.83,0,0,0-2.77-18.92,1,1,0,1,1,1.9-.62,73.54,73.54,0,0,1,2.87,19.5,1,1,0,0,1-1,1Z" fill="#61b198" data-primary="true"/>
<path d="M256.32,139h-.13a1,1,0,0,1-.86-1.13c.75-5.47-1.17-16.9-1.19-17a1,1,0,1,1,2-.34c.08.48,2,11.85,1.2,17.62A1,1,0,0,1,256.32,139Z" fill="#61b198" data-primary="true"/>
<path d="M136.21,154.46a1,1,0,0,1-.4-1.92c.76-.34,18.84-8.38,31.19-9.3a1,1,0,0,1,1.07.93,1,1,0,0,1-.92,1.07c-12,.89-30.34,9-30.53,9.13A1,1,0,0,1,136.21,154.46Z" fill="#61b198" data-primary="true"/>
<path d="M134.18,165.17a1,1,0,0,1-.48-1.88c.27-.15,27.84-15.06,64.62-13.94a1,1,0,0,1,1,1,1,1,0,0,1-1,1c-36.24-1.1-63.33,13.55-63.6,13.7A1,1,0,0,1,134.18,165.17Z" fill="#61b198" data-primary="true"/>
<path d="M133.68,173.67a1,1,0,0,1-.48-1.88c.32-.17,32.08-17.17,76.56-14.22a1,1,0,0,1,.93,1.06,1,1,0,0,1-1.06.93c-43.9-2.91-75.16,13.82-75.47,14A1.07,1.07,0,0,1,133.68,173.67Z" fill="#61b198" data-primary="true"/>
<path d="M137.62,196.74a1,1,0,0,1-1-.79c-2.29-11-.76-24.39-.7-25a1,1,0,0,1,1.11-.87,1,1,0,0,1,.88,1.11c0,.13-1.55,13.65.67,24.31a1,1,0,0,1-.77,1.18A.75.75,0,0,1,137.62,196.74Z" fill="#61b198" data-primary="true"/>
<path d="M152.68,223.43a1,1,0,0,1-.8-.4c-9.68-12.67-9.13-52.75-9.1-54.45a1,1,0,0,1,1-1h0a1,1,0,0,1,1,1c0,.41-.57,41.08,8.69,53.2a1,1,0,0,1-.19,1.4A1,1,0,0,1,152.68,223.43Z" fill="#61b198" data-primary="true"/>
<path d="M160.56,223.33a1,1,0,0,1-.86-.48c-9.52-15.63-9.49-55.08-9.49-56.75a1,1,0,0,1,1-1h0a1,1,0,0,1,1,1c0,.41,0,40.56,9.2,55.71a1,1,0,0,1-.34,1.37A1,1,0,0,1,160.56,223.33Z" fill="#61b198" data-primary="true"/>
<path d="M170.69,224.11a1,1,0,0,1-.86-.49c-12.09-20.76-12.12-57.88-12.12-59.45a1,1,0,0,1,1-1h0a1,1,0,0,1,1,1c0,.38,0,38.16,11.85,58.44a1,1,0,0,1-.36,1.37A1,1,0,0,1,170.69,224.11Z" fill="#61b198" data-primary="true"/>
<path d="M180.27,223.66a1,1,0,0,1-.83-.46c-15.28-23.26-14.13-60.62-14.12-61a1,1,0,0,1,1-1,1,1,0,0,1,1,1c0,.37-1.14,37.1,13.79,59.83a1,1,0,0,1-.29,1.38A1,1,0,0,1,180.27,223.66Z" fill="#61b198" data-primary="true"/>
<path d="M189.17,223a1,1,0,0,1-.84-.45c-15.93-24.11-15.22-61.55-15.22-61.93a1.05,1.05,0,0,1,1-1,1,1,0,0,1,1,1c0,.37-.69,37.2,14.89,60.78a1,1,0,0,1-.83,1.55Z" fill="#61b198" data-primary="true"/>
<path d="M198.06,221.15a1,1,0,0,1-.81-.42c-16.65-23.49-16.61-61.11-16.61-61.49a1,1,0,0,1,2,0c0,.37,0,37.36,16.24,60.31a1,1,0,0,1-.24,1.39A1,1,0,0,1,198.06,221.15Z" fill="#61b198" data-primary="true"/>
<path d="M206.73,218.18a1,1,0,0,1-.74-.33c-16.71-18.53-18.22-57.6-18.28-59.25a1,1,0,0,1,1-1,1,1,0,0,1,1,1c0,.4,1.55,40,17.76,58a1,1,0,0,1-.07,1.42A1,1,0,0,1,206.73,218.18Z" fill="#61b198" data-primary="true"/>
<path d="M214,215a1,1,0,0,1-.84-.45c-17.76-27.1-17-55.48-17-55.76a1,1,0,0,1,2,.07c0,.27-.71,28.05,16.68,54.59A1,1,0,0,1,214,215Z" fill="#61b198" data-primary="true"/>
<path d="M221.33,210.66a1,1,0,0,1-.72-.3C208,197.48,203.85,160,203.68,158.44a1,1,0,0,1,2-.21c0,.38,4.21,38.35,16.37,50.72a1,1,0,0,1,0,1.42A1,1,0,0,1,221.33,210.66Z" fill="#61b198" data-primary="true"/>
<path d="M206.5,168.92a1.06,1.06,0,0,1-.45-.11,1,1,0,0,1-.44-1.34,51,51,0,0,0,4-12.49,1,1,0,0,1,1.15-.82,1,1,0,0,1,.82,1.15,52.06,52.06,0,0,1-4.19,13.05A1,1,0,0,1,206.5,168.92Z" fill="#61b198" data-primary="true"/>
<path d="M208.78,182.37a1,1,0,0,1-.52-.14,1,1,0,0,1-.33-1.38c8-13,8.74-22.94,8.75-23a1,1,0,0,1,1.07-.93,1,1,0,0,1,.92,1.07c0,.42-.79,10.43-9,23.94A1,1,0,0,1,208.78,182.37Z" fill="#61b198" data-primary="true"/>
<path d="M211.75,192.41a1.06,1.06,0,0,1-.61-.2,1,1,0,0,1-.19-1.41c9.13-12,13.7-28.9,13.74-29.07a1,1,0,0,1,1.94.51c-.19.71-4.72,17.44-14.09,29.77A1,1,0,0,1,211.75,192.41Z" fill="#61b198" data-primary="true"/>
<path d="M214.71,200.16a1,1,0,0,1-.67-.26,1,1,0,0,1-.07-1.41c13.34-14.68,17.74-32.45,17.79-32.63a1,1,0,1,1,1.94.47c0,.18-4.55,18.44-18.25,33.51A1,1,0,0,1,214.71,200.16Z" fill="#61b198" data-primary="true"/>
<path d="M219.07,207.16a1,1,0,0,1-.69-.28,1,1,0,0,1,0-1.41c16.7-17.59,20.68-34,20.72-34.13a1,1,0,1,1,1.94.45c-.16.69-4.11,17.05-21.21,35.06A1,1,0,0,1,219.07,207.16Z" fill="#61b198" data-primary="true"/>
<path d="M232.05,202.44a1,1,0,0,1-.65-.23,1,1,0,0,1-.12-1.41c8.42-10,12.76-25.24,12.8-25.4a1,1,0,0,1,1.93.54c-.18.64-4.49,15.84-13.2,26.15A1,1,0,0,1,232.05,202.44Z" fill="#61b198" data-primary="true"/>
<path d="M578.78,286.25c0-.2-1.42-20.31-23.58-36.38q-2.69-2-5-3.58c-18.28-13.11-18.55-13.75-14.28-34l0-.15c0-.14,5.66-14.44,25.65-11.49.17,0,25.75,1.35,39-22.36.1-.15,4.71-7.23,3.78-18.76-9.65,12.14-19.35,12.79-20,12.82-33.58,1.52-41.29-16.94-42.88-28.09a19.61,19.61,0,0,1,11.07-20.57c25.51-12.12,44.36,10.81,44.54,11a55.53,55.53,0,0,1,8.51,19.48c4.87-7.4,9.52-18.19,12.59-33.9.18-1.39,4.95-35.5,29-48.3,13.91-7.41,31.36-6,51.87,4.16l-.89,1.8c-19.89-9.87-36.73-11.28-50-4.2-23.12,12.31-27.91,46.52-28,46.86-3.39,17.37-8.63,28.91-14.05,36.58,1.81,13.54-3.74,22-3.83,22.13-13.81,24.77-40.62,23.31-40.89,23.3-17.84-2.63-23.15,9.19-23.54,10.15-4.06,19.29-4,19.3,13.51,31.89q2.28,1.64,5,3.58c23,16.66,24.36,37,24.41,37.89Zm-11-164.16a33.16,33.16,0,0,0-14.37,3.4,17.6,17.6,0,0,0-10,18.47c1.83,12.8,10.41,27.76,40.81,26.39.15,0,10.1-.75,19.73-13.85a51.85,51.85,0,0,0-8.52-20.6C595,135.25,584.15,122.09,567.82,122.09Z" fill="#2f2e41" data-secondary="true"/>
<path d="M693.71,229.85a55.71,55.71,0,0,1-31.36-9.68h0a56.1,56.1,0,0,1-14.94-77.9l33.16-48.9a56.09,56.09,0,0,1,92.84,63l-33.16,48.9a55.73,55.73,0,0,1-35.86,23.6A56.88,56.88,0,0,1,693.71,229.85ZM727.1,70.75a55.43,55.43,0,0,0-10.3,1,53.76,53.76,0,0,0-34.57,22.76l-33.16,48.9a54.08,54.08,0,1,0,89.52,60.72l33.16-48.9A54.11,54.11,0,0,0,727.1,70.75Z" fill="#2f2e41" data-secondary="true"/>
<path d="M674.21,225.67c-3.4-82.77,38.57-154.13,39-154.84l1.71,1c-.42.71-42.09,71.57-38.71,153.73Z" fill="#2f2e41" data-secondary="true"/>
<path d="M682.21,227.42c-5.67-76.56,39.1-156.9,39.55-157.71l1.75,1c-.45.79-44.93,80.63-39.3,156.57Z" fill="#2f2e41" data-secondary="true"/>
<path d="M691,229c-8.37-71.32,38.16-159,38.63-159.89l1.77.94c-.47.87-46.7,88-38.41,158.71Z" fill="#2f2e41" data-secondary="true"/>
<path d="M699,228.13C696.18,143.76,737.21,71,737.62,70.31l1.74,1c-.41.72-41.16,73-38.39,156.76Z" fill="#2f2e41" data-secondary="true"/>
<path d="M707.4,226.92C705,138.16,744.86,73.33,745.27,72.68L747,73.74c-.4.64-39.94,65-37.56,153.13Z" fill="#2f2e41" data-secondary="true"/>
<path d="M640.44,162.46l-.51-1.94c.5-.13,51.07-14,115.08-83.17l1.47,1.36C692,148.33,640.94,162.32,640.44,162.46Z" fill="#2f2e41" data-secondary="true"/>
<path d="M639.73,170.85,639,169c75.09-28.45,121.89-87.37,122.36-88L763,82.25C762.48,82.85,715.36,142.19,639.73,170.85Z" fill="#2f2e41" data-secondary="true"/>
<path d="M639,178.86l-.77-1.84c91.31-38,127.6-90.6,128-91.13L767.81,87C767.45,87.54,730.87,140.67,639,178.86Z" fill="#2f2e41" data-secondary="true"/>
<path d="M640.11,186.51l-.66-1.89C723.26,155,770.53,92.9,771,92.27l1.59,1.2C772.12,94.1,724.49,156.66,640.11,186.51Z" fill="#2f2e41" data-secondary="true"/>
<path d="M642.19,193.3l-.8-1.83c1-.43,97.67-43,133.61-92.36l1.62,1.17C740.36,150.08,643.16,192.87,642.19,193.3Z" fill="#2f2e41" data-secondary="true"/>
<path d="M712.7,171.84l-1.38-1.44c9.36-9,17.34-28,17.42-28.16l1.85.77C730.25,143.81,722.37,162.57,712.7,171.84Z" fill="#2f2e41" data-secondary="true"/>
<path d="M710.72,186.26l-1.44-1.39c20.09-20.87,31.37-51.11,31.48-51.42l1.88.7C742.53,134.45,731.1,165.08,710.72,186.26Z" fill="#2f2e41" data-secondary="true"/>
<path d="M709.53,198.69l-1.46-1.37c31.95-33.92,43-71.84,43.1-72.22l1.93.55C753,126,741.82,164.4,709.53,198.69Z" fill="#2f2e41" data-secondary="true"/>
<path d="M709.31,209.27l-1.33-1.5c18.52-16.49,36.46-48.06,36.64-48.38a162.19,162.19,0,0,0,16.69-44.2l2,.37a164,164,0,0,1-16.91,44.82C746.18,160.7,728.08,192.55,709.31,209.27Z" fill="#2f2e41" data-secondary="true"/>
<path d="M709,218.42l-1.3-1.52c34.18-29.26,51.14-70.53,51.3-71,7.25-16.53,11.69-40.53,11.74-40.77l2,.36c0,.24-4.52,24.47-11.85,41.19C760.69,147.12,743.57,188.83,709,218.42Z" fill="#2f2e41" data-secondary="true"/>
<path d="M705.92,228.24l-1-1.71c22.24-13.58,44.55-48,44.78-48.32,20.28-28.4,27.78-72,27.85-72.43l2,.33c-.08.44-7.65,44.48-28.18,73.22C751.11,179.64,728.55,214.42,705.92,228.24Z" fill="#2f2e41" data-secondary="true"/>
<path d="M669.1,149.53l-1.67-1.1c.54-.82,13.47-20.27,24.07-29.1l1.28,1.53C682.4,129.51,669.23,149.33,669.1,149.53Z" fill="#2f2e41" data-secondary="true"/>
<path d="M658.52,154.78l-1.74-1c.15-.26,15.11-26.63,39.72-47.72l1.3,1.52C673.46,128.45,658.67,154.51,658.52,154.78Z" fill="#2f2e41" data-secondary="true"/>
<path d="M650.88,158l-1.79-.88c.2-.4,19.95-40,52.79-62.87L703,95.86C670.61,118.43,651.08,157.58,650.88,158Z" fill="#2f2e41" data-secondary="true"/>
<path d="M660.14,126.68l-1.44-1.39c1.38-1.42,33.86-35,49.4-44.94L709.18,82C693.84,91.87,660.47,126.34,660.14,126.68Z" fill="#2f2e41" data-secondary="true"/>
<path d="M661.36,186.74a21.21,21.21,0,0,1-5.14-.54l.51-1.93c.09,0,9.77,2.44,20.74-4.31l1,1.7A32.6,32.6,0,0,1,661.36,186.74Z" fill="#2f2e41" data-secondary="true"/>
<path d="M661.06,194a45.94,45.94,0,0,1-15.27-2.77l.73-1.87c.18.07,17.63,6.77,29.41-1.65l1.17,1.63A27.19,27.19,0,0,1,661.06,194Z" fill="#2f2e41" data-secondary="true"/>
<path d="M661.28,200.09a57.55,57.55,0,0,1-18.12-3l.69-1.88c.16.06,16.64,6,31.14.59l.7,1.88A41.46,41.46,0,0,1,661.28,200.09Z" fill="#2f2e41" data-secondary="true"/>
<path d="M663,207.36a54.49,54.49,0,0,1-16.59-2.91l.68-1.88c.16.06,16.8,6,27.18.35l1,1.76A25.66,25.66,0,0,1,663,207.36Z" fill="#2f2e41" data-secondary="true"/>
<path d="M662.13,213.77a67.47,67.47,0,0,1-7.84-.43l.24-2c.12,0,12,1.42,19.91-1.14l.61,1.9A44.22,44.22,0,0,1,662.13,213.77Z" fill="#2f2e41" data-secondary="true"/>
<path d="M666,220.54a23.83,23.83,0,0,1-3.28-.21l.32-2A25.33,25.33,0,0,0,674.69,217l.71,1.87A26.8,26.8,0,0,1,666,220.54Z" fill="#2f2e41" data-secondary="true"/>
<path d="M750.76,188.38c-13.94-11-92-59.58-92.75-60.07l1-1.7c.79.49,78.91,49.09,92.94,60.2Z" fill="#2f2e41" data-secondary="true"/>
<path d="M757.28,177.94c-60.74-18.78-85.55-70.17-85.8-70.68l1.81-.86c.24.51,24.71,51.12,84.58,69.63Z" fill="#2f2e41" data-secondary="true"/>
<path d="M755.46,181.16c-41.3-14.94-88.92-64.89-89.4-65.39l1.46-1.37c.47.5,47.77,50.1,88.62,64.88Z" fill="#2f2e41" data-secondary="true"/>
<path d="M753.93,183.79c-41.81-18.13-91.15-62.51-91.64-62.95l1.34-1.49c.49.45,49.59,44.61,91.1,62.61Z" fill="#2f2e41" data-secondary="true"/>
<path d="M728,329.92l-190.66-44a6,6,0,0,1,7.13-4.18l178.22,42.24A6.88,6.88,0,0,1,728,329.92Z" opacity="0.2"/>
<path d="M306.51,355.11c.62,1.35,1.52,3.38,2.53,5.88,2.73,6.8,4.14,12.09,5.08,14.94,2.8,8.51,3.21,9.59,9.12,31.28,0,0-6.95-.74-10.07.57a1.72,1.72,0,0,0-.18,3.1c2.41,1.39,8.45,3.46,18.1-2.14,0,0,51.25-35.79,77.51-18.54l-18,18.54s-12.36,5.67-15.71,9.27c0,0-9.27,6.95-15.71,9.79,0,0-14.93,9.27-41.71,32.7l-20.91,20.17s-10.29,9.14-20.29,14.57c0,0-40.29,29.29-62.57,67.29,0,0-21.69-9.36-38.14-15-3.33-1.14-8-5.15-11.15-6.64l-9-7.93,36-44.57s32.15-38.58,39-71.15l15.43-47.57s1.72-18.43,15-23.14c0,0,20.57-9.43,33.43-22.72,0,0,27.14-23.71,40-28l62.86-38.57s7.71-.57,2,14c0,0-3.43,13.72-25.72,26.57,0,0-14.85,16-28,23.43l-11.29,11a.14.14,0,0,0,.14.23c1.95-.59,8.64-2.24,13.47,1.15q-7.8,2.88-15.7,5.74-7.67,2.78-15.25,5.48C310.11,346.1,303.36,348.35,306.51,355.11Z" fill="#f9b499"/>
<path d="M397.24,392.19s-11.24,1.64-9.32,10.14c0,0,.55,7.67,7.4,6,0,0,24.39-4.12,20.83-13.16C416.15,395.2,417.52,385.06,397.24,392.19Z" fill="#61b198" data-primary="true"/>
<path d="M122.61,542.71c10,2.23,47.31,18.55,68.74,28.7,9.57,4.53,16.18,7.74,16.18,7.74l5.6-4.45c9.07-5.93,2.87-12.44,2.87-12.44-7.37-7.38-30.94-15.49-30.94-15.49-18.79-8-35.19-17.16-35.19-17.16-9.72-7.43-17.79,4.51-17.79,4.51a19.3,19.3,0,0,1-1.67,2.25A32.27,32.27,0,0,1,122.61,542.71Z" fill="#2f2e41" data-secondary="true"/>
<path d="M123.56,542.47c10.42,2.33,48.27,19.61,70.62,30-2.62-3.86-11.13-13.49-35-23.15,0,0-20-7.61-28.65-12.79A29.81,29.81,0,0,1,123.56,542.47Z" opacity="0.2"/>
<path d="M207.53,579.15s9.73,1.23,5.86,13.52l-12.85,37a16,16,0,0,1-15.06,10.71h-125a31.76,31.76,0,0,1-31.75-31h0A31.85,31.85,0,0,1,38,586.16c17.76-17.81,56.6-52,85.56-43.69,0,0,27.5,9,48.09,19.91Z" fill="#61b198" data-primary="true"/>
<path d="M308,358.1a55.74,55.74,0,0,1-1.51,7.55,65.72,65.72,0,0,1-2.52,7.31,48.23,48.23,0,0,1-3.59,6.87,34.25,34.25,0,0,1-4.9,6.05l0,0-.07,0a2.77,2.77,0,0,0-1.23,2.15,5.23,5.23,0,0,0,.68,2.67,13.51,13.51,0,0,0,1.7,2.39c.64.75,1.37,1.45,2.08,2.15l0,0h0l4.5,5.66c1.47,1.91,3,3.8,4.42,5.73-1.63-1.78-3.2-3.61-4.8-5.41L298,395.85l0,0a28.25,28.25,0,0,1-2.21-2.17,14.69,14.69,0,0,1-1.85-2.53,6.24,6.24,0,0,1-.82-3.15,3.72,3.72,0,0,1,1.69-2.94l-.1.08a39.14,39.14,0,0,0,4.79-5.86,53.9,53.9,0,0,0,3.64-6.68,66.9,66.9,0,0,0,2.76-7.13A69.8,69.8,0,0,0,308,358.1Z" fill="#f7a48b"/>
<path d="M281.39,371.81a14.27,14.27,0,0,1,2.58,2.13,20.26,20.26,0,0,1,2.14,2.57,12.56,12.56,0,0,1,2.35,6.23c-.46-1-.93-2-1.45-2.93s-1.11-1.85-1.73-2.73C284.07,375.29,282.73,373.6,281.39,371.81Z" fill="#f7a48b"/>
<path d="M284.18,398.6a2,2,0,0,1,1.33,0,3.65,3.65,0,0,1,1.15.62,3.81,3.81,0,0,1,1.38,2.15,6.87,6.87,0,0,1-1.08-.66c-.33-.23-.62-.48-.92-.71l-.88-.71C284.85,399.08,284.56,398.84,284.18,398.6Z" fill="#f7a48b"/>
<path d="M294.68,365.17a18.09,18.09,0,0,1,.37,3.1,26.73,26.73,0,0,1-.05,3.1,20.25,20.25,0,0,1-.48,3.09,9.53,9.53,0,0,1-1.13,2.93c.32-2.06.45-4.06.61-6.09S294.32,367.23,294.68,365.17Z" fill="#f7a48b"/>
<path d="M316.32,391.31a17,17,0,0,1,.59,3.23,27.47,27.47,0,0,1,.08,3.27,15.57,15.57,0,0,1-1.53,6.36l.33-3.22c.07-1.06.15-2.12.2-3.19C316.1,395.63,316.14,393.5,316.32,391.31Z" fill="#f7a48b"/>
<path d="M315.74,380.6s-4.29,2.57-2.14,4.07c0,0,.42.51,3.42.08Z" fill="#f7a48b"/>
<path d="M382.41,268.13a1.94,1.94,0,0,1-1.68-3.16c1.52-1.81,4.92-4.53,12.25-8.45,0,0,6.07-3.85,9.86-2.06a1.54,1.54,0,0,1,.82,1.82c-.39,1.25-2,3.31-7.68,6C396,262.28,388.7,267.6,382.41,268.13Z" fill="#61b198" data-primary="true"/>
<path d="M343.49,290.14c-2.33-7.13-2.5-13.38,1.66-16.81,1-1,17.47-16.25,37.93,3.38A50.8,50.8,0,0,1,389,283.6c3.92,5.38,17.66,23.32,30,28.33a1,1,0,0,1-.75,1.85c-12.46-5.07-25.71-22-30.83-29a49.69,49.69,0,0,0-5.7-6.63c-19.55-18.76-34.54-4-35.17-3.38a.6.6,0,0,1-.08.08c-3.32,2.7-3.21,7.94-1.21,14.2" fill="#61b198" data-primary="true"/>
<path d="M563,279.37s-10.09,5.77-6.73,16.82l5.8,28.13,6.69,32.89s2.54,17.91,1.58,30.41c0,0-8.72,55,3.23,66.65l.48,28.83a24.37,24.37,0,0,0,6,10.95,38.94,38.94,0,0,1,7.71,10.54,89.7,89.7,0,0,1,4.12,10.22s8.65,16.33,14.41,26.42c0,0,15.38,23.55,17.3,35.08a103.46,103.46,0,0,1,29.14-7.06c2-.17,4-.45,6-.79C667.27,567,688,563.35,698.5,560c0,0-51.42-43.24-45.65-104.74l13.45-54.78a92.73,92.73,0,0,0,4.33-18.74l7.2-22.1s4.21-9.68-9.82-16.83a54,54,0,0,1-7.84-4.93c-4-3-9.6-7.12-13.57-10,0,0-1.54-2.63-7.79-5.51q-17-3.3-34.4-6.42l-11.81-2.08C590.87,293.05,582,278.43,563,279.37Z" fill="#f9b499"/>
<path d="M565.92,270.54a11.05,11.05,0,0,0-7.36,2.65,9,9,0,0,0-2.9,10.33l4.47,15.63s2,6.93,12.51,2.91c0,0,8.94-1.57,6.48-13C579.12,289.1,577,270.82,565.92,270.54Z" fill="#61b198" data-primary="true"/>
<path d="M615.68,491.24,625,503.71c1.57,2.06,3.17,4.1,4.78,6.13.81,1,1.61,2,2.47,3s1.69,2,2.53,3a57.72,57.72,0,0,1-5.59-5.47c-1.76-1.93-3.39-4-5-6s-3.09-4.2-4.51-6.38S616.91,493.54,615.68,491.24Z" fill="#f7a48b"/>
<path d="M573.68,461.24c.86,2.4,1.62,4.83,2.37,7.26s1.43,4.88,2.11,7.33,1.31,4.91,1.89,7.38l.86,3.72c.26,1.25.54,2.49.77,3.74-.44-1.2-.82-2.41-1.24-3.61l-1.13-3.65c-.76-2.42-1.44-4.87-2.11-7.32s-1.31-4.91-1.89-7.39S574.15,463.75,573.68,461.24Z" fill="#f7a48b"/>
<path d="M592.31,312.52c2.37,6.56,4.16,13.3,6,20,.91,3.36,1.73,6.75,2.58,10.13l.56,2.57.53,2.55c.36,1.69.78,3.37,1.22,5q1.3,5,3.08,9.93c.56,1.64,1.24,3.23,1.88,4.84s1.37,3.19,2.16,4.73a58.76,58.76,0,0,0,12,16.9,42.92,42.92,0,0,1-3.76-3.63c-.58-.65-1.2-1.27-1.75-1.95l-1.61-2.06a65.45,65.45,0,0,1-5.51-8.92,79.61,79.61,0,0,1-4.22-9.6q-1.83-4.92-3.19-10c-.42-1.69-.83-3.39-1.19-5.1l-.5-2.58-.53-2.53-2.45-10.15q-1.21-5.07-2.5-10.13C594.19,319.22,593.33,315.85,592.31,312.52Z" fill="#f7a48b"/>
<path d="M608.25,369.24c2.87-1.47,5.78-2.85,8.7-4.21s5.87-2.66,8.81-4,5.92-2.55,8.91-3.75l4.48-1.8c1.51-.57,3-1.17,4.53-1.71-1.43.75-2.89,1.44-4.33,2.16L635,358c-2.91,1.37-5.86,2.67-8.81,4s-5.91,2.54-8.9,3.75S611.28,368.15,608.25,369.24Z" fill="#f7a48b"/>
<path d="M626.54,372.39a22.31,22.31,0,0,1-3.72.42,27.66,27.66,0,0,1-3.75-.14,21.27,21.27,0,0,1-3.69-.71,11.93,11.93,0,0,1-3.42-1.57,33.8,33.8,0,0,0,3.6.81c1.2.2,2.41.35,3.62.48s2.43.23,3.66.35S625.29,372.24,626.54,372.39Z" fill="#f7a48b"/>
<path d="M599.68,331.24c2.17,2.14,4.26,4.34,6.34,6.56s4.11,4.47,6.14,6.73l1.5,1.71.76.86a6.88,6.88,0,0,1,.71,1,7.11,7.11,0,0,1,.87,2.25,9.53,9.53,0,0,1,.14,2.36l0,4.55c-.05,1.52-.07,3-.15,4.56-.14-1.51-.23-3-.34-4.55l-.25-4.55a11.67,11.67,0,0,0-.22-2.18,6.32,6.32,0,0,0-.82-1.95,6.43,6.43,0,0,0-.64-.84l-.76-.85-1.52-1.69c-2-2.28-4-4.56-6-6.89S601.54,333.65,599.68,331.24Z" fill="#f7a48b"/>
<path d="M620.54,342.67a23.73,23.73,0,0,1,4.51-3,31.26,31.26,0,0,1,5-2.13c.86-.3,1.75-.51,2.63-.75s1.78-.39,2.69-.48a24.69,24.69,0,0,1,5.43-.18c-1.79.28-3.56.54-5.3.95a48.24,48.24,0,0,0-5.14,1.41,52.62,52.62,0,0,0-5,1.88C623.75,341.05,622.12,341.8,620.54,342.67Z" fill="#f7a48b"/>
<path d="M609.39,353.53a14.33,14.33,0,0,1-3.56-1.73,13.73,13.73,0,0,1-3-2.56,13.51,13.51,0,0,1,3.56,1.73A13.77,13.77,0,0,1,609.39,353.53Z" fill="#f7a48b"/>
<path d="M598.82,314.39a7.59,7.59,0,0,1-.37,2,11.94,11.94,0,0,1-.78,1.89,8.57,8.57,0,0,1-1.17,1.7,4.36,4.36,0,0,1-1.68,1.24,33.69,33.69,0,0,0,2-3.41A29.76,29.76,0,0,1,598.82,314.39Z" fill="#f7a48b"/>
<path d="M569.68,326.1a16.47,16.47,0,0,1,3.86-2.76,23.6,23.6,0,0,1,4.42-1.81,24.28,24.28,0,0,1,4.69-.9,22.09,22.09,0,0,1,4.74,0c-1.57.23-3.11.43-4.63.73a42.93,42.93,0,0,0-4.51,1.09,39.79,39.79,0,0,0-4.37,1.55A37.06,37.06,0,0,0,569.68,326.1Z" fill="#f7a48b"/>
<path d="M590.54,324.67a11.72,11.72,0,0,1-2.43,3.87,17.86,17.86,0,0,1-3.54,2.94,20.93,20.93,0,0,1-4.15,1.95c-.72.26-1.47.42-2.2.61s-1.5.26-2.26.35c.71-.31,1.42-.53,2.11-.82s1.39-.55,2.06-.87,1.35-.6,2-1,1.29-.71,1.92-1.09a26.49,26.49,0,0,0,3.52-2.64A19.3,19.3,0,0,0,590.54,324.67Z" fill="#f7a48b"/>
<path d="M568.54,333a7.94,7.94,0,0,1,1.83-1.64,11.28,11.28,0,0,1,2.17-1.15,10.47,10.47,0,0,1,2.39-.66,7.52,7.52,0,0,1,2.46,0c-.78.28-1.54.47-2.28.74s-1.47.52-2.19.82C571.46,331.66,570.05,332.32,568.54,333Z" fill="#f7a48b"/>
<path d="M569.39,339.81a21,21,0,0,0,3.89.55,15.73,15.73,0,0,0,3.82-.29,12.56,12.56,0,0,0,3.59-1.25,19.81,19.81,0,0,0,3.27-2.15,10.32,10.32,0,0,1-2.88,2.82,10.88,10.88,0,0,1-1.81,1,13.61,13.61,0,0,1-2,.58A11.55,11.55,0,0,1,569.39,339.81Z" fill="#f7a48b"/>
<path d="M476.42,274.47a10,10,0,0,0-4.58-5,7.34,7.34,0,0,0-3.33-1h-.32c-12.52,0-15.85,32.31-15.88,32.64a1,1,0,0,1-1,.91h-.1a1,1,0,0,1-.9-1.09c.14-1.43,3.6-35.07,18.27-34.44a9.18,9.18,0,0,1,4.25,1.31c1.76,1,5,3.39,5.79,7.21" fill="#2f2e41" data-secondary="true"/>
<circle cx="205.92" cy="566.92" r="4.43" opacity="0.2"/>
<path d="M722,578.67c-10.67-.19-51.53,7.67-75.72,12.54C635.44,593.38,628,595,628,595l-4.57-5.72c-7.72-8,.15-12.93.15-12.93,9.28-5.5,35.12-7.85,35.12-7.85,21-3.35,39.83-8.48,39.83-8.48,11.67-5,16.9,8.69,16.9,8.69a19.92,19.92,0,0,0,1.14,2.62A29.6,29.6,0,0,0,722,578.67Z" fill="#2f2e41" data-secondary="true"/>
<circle cx="631.54" cy="585.1" r="4.43" opacity="0.2"/>
<path d="M722,578.67c-10.67-.19-51.53,7.67-75.72,12.54,3.46-3.14,14-10.49,39.43-14.25,0,0,21.21-2.68,30.86-5.67A29.6,29.6,0,0,0,722,578.67Z" opacity="0.2"/>
<line x1="334.1" y1="332.26" x2="316.76" y2="344.86" fill="none" stroke="#f7a48b" stroke-miterlimit="10"/>
</svg>